<?xml version="1.0" encoding="utf-8"?>
<!-- Generator: Adobe Illustrator 27.1.0, SVG Export Plug-In . SVG Version: 6.00 Build 0)  -->
<svg version="1.1" id="Ebene_1" xmlns="http://www.w3.org/2000/svg" xmlns:xlink="http://www.w3.org/1999/xlink" x="0px" y="0px"
	 viewBox="0 0 400 600" style="enable-background:new 0 0 400 600;" xml:space="preserve">
<style type="text/css">
	.st0{fill:#1588CA;stroke:#000000;stroke-width:2;stroke-miterlimit:10;}
	.st1{fill:#FFFFFF;stroke:#000000;stroke-width:2.1324;stroke-miterlimit:10;}
	.st2{fill:#EAEAEA;stroke:#000000;stroke-width:2;stroke-linecap:round;stroke-miterlimit:10;}
	.st3{fill:#FFFFFF;stroke:#000000;stroke-width:2;stroke-miterlimit:10;}
	.st4{fill:none;stroke:#1D1D1B;stroke-width:4;stroke-linecap:round;stroke-linejoin:round;}
	.st5{fill:#1588CA;stroke:#000000;stroke-width:1.9949;stroke-miterlimit:10;}
	.st6{stroke:#000000;stroke-miterlimit:10;}
	.st7{fill:#FFFFFF;stroke:#000000;stroke-width:2.2302;stroke-miterlimit:10;}
</style>
<path class="st0" d="M76.4,371.3c-31,4.1-54.2,30.6-54.2,61.9v85.9l171.1-0.1l-53.9-156.2L76.4,371.3z"/>
<path class="st0" d="M350.3,433.2c0-31.3-23.2-57.8-54.2-61.9l-61.1-8.4l-49.8,156.2l165.2,0.1L350.3,433.2L350.3,433.2z"/>
<rect x="139.1" y="327.7" class="st1 skin" width="99.9" height="41.3"/>
<path class="st2" d="M130.2,361.7l43,119h27l43-119H130.2z"/>
<path class="st0" d="M186.7,513.3l-11.7-30l6.4-95.6h10.2l6.9,95.6L186.7,513.3z M206.1,361.7h-37.5l13.5,26h9.2L206.1,361.7z
	 M175.1,483.7l-40-122h-6L112,396.9l24.5,12.3c3.3,1.7,5,5.4,4.1,9l-6.5,26.2L175.1,483.7z M247.2,361.7h-5.7l-42.4,121l43.8-35.5
	l-6.8-27.2c-0.9-3.7,0.9-7.6,4.3-9.3l25.5-12.7L247.2,361.7z M93.2,478.3v41.3 M287.9,478.3v41.3"/>
<path class="st3 skin" d="M271.3,207.2v-3.4l-37.9-48.6c-1.9,0.2-3.6,0.3-4.7,0.3H133l-28.6,48.8v2.9c-12.6,0-22.8,10.2-22.8,22.8
	s10.2,22.8,22.8,22.8v22.8c-0.1,11.2,3.9,22,11.2,30.4l21.3,24l11.6,13.1c5.8,6.5,14,10.3,22.8,10.3h33.2c8.7,0,17-3.8,22.8-10.3
	l32.8-37.1c7.3-8.4,11.3-19.2,11.2-30.4v-22.8c12.6,0,22.8-10.2,22.8-22.8S283.9,207.2,271.3,207.2z"/>
<path class="st4" d="M187.5,265.1c1.5,6.9,16.5,2.1,20.1-1.5"/>
<path class="st5" d="M255.3,146c9.4-11.3,12.1-30.3,6.3-46.3c-1.3-3.5-2.9-6.6-4.9-9.4l-6.5-9.3c0,0-14.1,17.7-31.5,18.8
	c-13,0.8-69.4-0.2-69.4-0.2c-20.3,0-40.2,26.4-35.5,52.9c-7.1,7.4-12.3,17.5-11.4,29L104,205l28.9-49.5h95.2c1.1,0,2.8-0.1,4.7-0.3
	l38.7,49.8l1.8-23.5C274.2,166.5,267.1,152.5,255.3,146z"/>
<path class="st6" d="M154.9,232.4c2.9-5.3,1-11.9-4.3-14.8c-5.3-2.9-11.9-1-14.8,4.3c-2.9,5.3-1,11.9,4.3,14.8
	C145.3,239.7,152,237.7,154.9,232.4z M243.6,213.3c-6,0.5-10.5,5.7-10.1,11.8c0.5,6,5.7,10.5,11.7,10.1c6-0.5,10.5-5.7,10.1-11.7
	C254.8,217.3,249.6,212.8,243.6,213.3z M199.1,297.3c8,0.4,16,2.2,21.7,9.2c1.7,2.1,3,4.7,3.8,7.2c1.4,4.4-0.6,7.4-5.2,8.1
	c-2,0.3-4.1,0.4-6,0.1c-10.7-1.6-21.3-0.5-31.9,0.7c-1.7,0.2-3.5,0.4-5.3,0.4c-4.7,0.1-7.2-2.6-6.7-7.4c0.6-5.4,3.7-9.2,8-12.2
	C183.9,299.1,191,297.4,199.1,297.3z"/>
<path class="st7 skin" d="M379.3,336.2c-2.6,0-4.5,0.9-5.7,2.5c-1.3,1.5-1.9,3.7-1.9,6v10.1v-10.1v-5.8c0-2.4-0.9-4.5-2.4-6
	s-3.5-2.5-5.7-2.5c-4.4,0-8.1,3.8-8.1,8.6v15.9v-21.2c0-4.7-3.6-8.6-8.1-8.6c-4.4,0-8.1,3.8-8.1,8.5v0.2v21l0,0v-21v-0.2l0,0v-30.2
	c-0.1-4.6-3.7-8.3-8-8.3c-2.2,0-4.2,1-5.7,2.5c-1.5,1.6-2.4,3.7-2.4,6v68.6l-20.4-20.7c-2.1-1.9-6.6-4.9-11.2-0.8
	c-5,4.4-4.1,9.1-1.5,12.6l18,22.4c3.5,6.2,5.4,20.8,10,27.6c1.4,2,3.5,3.9,3.5,3.9h58.1c2.1-4.3,4.8-8.6,6.1-13.9
	c0.9-3.4,1.5-7.3,1.5-11.5v-46.9C387.5,340,384.4,336.2,379.3,336.2z"/>
<path class="st0" d="M321.7,417.1l-29.3,102.1H351l29.3-102.1H321.7z"/>
</svg>
