<?xml version="1.0" encoding="utf-8"?>
<svg version="1.1" id="EG" x="0px" y="0px" viewBox="0 0 2000 2000" style="enable-background:new 0 0 2000 2000;" xmlns="http://www.w3.org/2000/svg">
  <style type="text/css">
	.st0{fill:#FFFFFF;stroke:#1D1D1B;stroke-miterlimit:10;}
	.st1{fill:#1D1D1B;}
	.st2{fill:none;stroke:#000000;stroke-width:2;stroke-miterlimit:10;}
	.st3{fill:#008BD0;}
</style>
  <path id="windows" class="st0" d="M1518.7,1836l-8.3-1616.5l26.8-0.1l8.3,1616.5L1518.7,1836z M1490,1791.9l-907.7-452.5l-12,24 l907.7,452.5L1490,1791.9z"/>
  <path id="rooms" class="st1" d="M742.5,1162.8L637.9,1362l44.5,22.2l-23.5,47.2l-62-30.9l23.5-47.2l7.7,3.8L732.6,1158l-10.9-6.4 l4.7-10l136.4,68.5l-4.7,10L742.5,1162.8z M626.5,1104.9l50.1,24.5l4.7-10l-49.9-24.4l98.3-198.5l17.1-0.1L748,873l-33.4,0.4 l-210.2,422.3l-13.1-6.5l-23.5,47.2l95.2,47.5l23.5-47.2l-60.1-29.9L626.5,1104.9z M1073.6,1327.4l4.7-10l-170-83.9l-4.7,10 l49.5,24.4l-104.4,198.9l-64.2-32l-23.7,47.6l109.3,54.5l23.7-47.6l-35.2-17.6L963,1272.8L1073.6,1327.4z M1119.5,1351.1l42.2,19.7 L1057.1,1570l-64.6-32.2l-23.7,47.6l178.9,89.2l23.7-47.6l-104.5-52.1l104.7-199.4l37,17.9l4.7-10l-89.2-42.3L1119.5,1351.1z M811.5,1093.5l1.6-3.1l90.5,42l4.7-10l-90.1-41.8l97-184.7h61.3l87.7,44.4l-106.4,205.3l-5.4-3.1l-4.7,10l14.8,8l217.6-419.9 l0.3,0.1l4.7-10l-17.1-9.4l-4.7,10l7.2,4l-101.2,195.4L992,891.5V874V694.8l21-39.9l-0.3,0.7l103.9,52.7l4.7-10l-103.5-52.5 L1033,617l-15-6.9L979.1,684H964v190H802l-2,22h102.8l-101.1,192.5L811.5,1093.5z M1293.8,762.8l-228.1,438.9l-0.4-0.2l-4.7,10 l53.5,27.4l4.7-10l-43.4-22.2l107.6-207l93,47.3l-106.3,206.5l-3.3-1.6l-4.7,10l2.9,1.4l-0.1,0.1l9.8,5l0.2-0.3l7.5,3.7l4.7-10 l-7.2-3.5l124.8-242.4h16.5v-11h-30v11h1.1l-11,21.3l-92.9-47.3l115.4-222.1L1293.8,762.8z M1300.7,1416.9l-10.7,0l0,6.5l-32.1-18.3 l-4.7,10l36.7,20.8l-1.7,249.2l-14.6-7.3l-23.7,47.6l110.1,54.9l23.7-47.6l-84.8-42.3L1300.7,1416.9z M1508,428h-361v11h19.9 l-1.9,192l0,0h-0.1v5l16,7l5-9l-10-3l1.9-192H1510v100h57.4V344H1508V428z M1034,127v35.9v3.1v173h13.6v208v2v16h22.4v-16h9V441h18 v-11h-18v-92h-5V176.1l434,0.9v64h59.4V128L1034,127z M1510,685h-198v10.8l-80.4-42.1l-4.9,9.8L1319,712l-2.2,4.3l7.8,5.2l9.4-16.6 h176v98h57.4V644H1510V685z M1510,1659h57.4v-125H1510V1659z M1510,1796.9l-25.4-13.1l-23.7,47.6l49.2,24.6v0l53.2,28.8l4.2-120.8 H1510V1796.9z M1510,1308h-233v0.9l-43.6-22.3l-4.7,10l48.3,24.7v17.8h13l0.1,26l10.7,0l-0.1-26H1510v84h57.4v-243H1510V1308z M1510,1004h-139v11h139v48h57.4V910H1510V1004z"/>
  <path id="doors" class="st2" d="M1096,439l-0.1-63.1c0,0,51.9-3.3,51,63.1 M1228.1,663.6c27.5-60.4-21.4-78.2-21.4-78.2l-25.2,57.8 M1121.6,698.8c-29.9,59.3,18.3,79,18.3,79l27.5-56.8 M1321,1005l-0.1,63.1c0,0,51.9,3.3,51-63.1 M1227.8,1296.1 c30.9-58.7-16.9-79.3-16.9-79.3l-28.5,56.3 M1161.9,1262l28.1-56.5c0,0-45.1-26-73.6,33.9 M948.9,1153l28.1-56.5 c0,0-45.1-26-73.6,33.9 M1078.8,1318.1c-30.9,58.7,16.9,79.3,16.9,79.3l28.5-56.3 M1212.8,1383.1c-30.9,58.7,16.9,79.3,16.9,79.3 l28.5-56.3 M862.8,1210.1c-30.9,58.7,16.9,79.3,16.9,79.3l28.5-56.3 M681.3,1119.5c-30.9,58.7,16.9,79.3,16.9,79.3l28.5-56.3 M1290,1416.9c66.3,1.9,63.1-50.1,63.1-50.1l-63.1-0.8 M748,873l-0.9,63.1c0,0,54.9,4,54.8-62.4 M1293.9,762.9 c59.2,30,79-18.2,79-18.2l-56.7-27.6 M1018,610l64.4,30.7c0,0,25.7-48.3-34.4-76.7"/>
  <path id="Entrance" d="M1044,591.6l-34.1,9.2l24.9-43.4L1044,591.6z M777.3,875.7L752.1,851l50-0.5L777.3,875.7z"/>
  <path id="basement" d="M760.3,793.2c-2.1,0-3.8,0.8-5.1,2.3v-10.8h-5.6v30h5.1l0.3-2.2c1.4,1.8,3.2,2.6,5.5,2.6 c2.6,0,4.6-0.9,6.1-2.8s2.2-4.5,2.2-7.9V804c0-3.4-0.7-6.1-2.2-8S762.9,793.2,760.3,793.2z M762.5,807.9c-0.6,1.8-1.8,2.7-3.6,2.7 c-1.8,0-3.1-0.7-3.8-2.2V800c0.7-1.5,1.9-2.2,3.7-2.2c1.3,0,2.4,0.5,3,1.5c0.7,1,1,2.6,1,4.7C762.9,805.7,762.8,807,762.5,807.9z M789.2,800.7c0-2.4-0.8-4.2-2.3-5.5c-1.5-1.3-3.6-2-6.2-2c-1.7,0-3.3,0.3-4.6,0.9c-1.4,0.6-2.4,1.4-3.2,2.5c-0.8,1-1.1,2.2-1.1,3.4 h5.6c0-0.8,0.3-1.4,0.8-1.9c0.5-0.5,1.3-0.7,2.2-0.7c1.1,0,1.9,0.3,2.4,0.9c0.5,0.6,0.8,1.4,0.8,2.3v1.2h-2.6 c-3.1,0-5.5,0.6-7.2,1.8c-1.7,1.2-2.5,2.9-2.5,5.2c0,1.8,0.7,3.3,2,4.5c1.4,1.2,3.1,1.8,5.1,1.8c2.2,0,4-0.8,5.3-2.3 c0.1,0.8,0.3,1.4,0.6,1.9h5.7v-0.3c-0.5-1-0.8-2.5-0.8-4.6V800.7z M783.5,808.7c-0.3,0.6-0.9,1.1-1.6,1.5s-1.5,0.6-2.3,0.6 c-0.9,0-1.5-0.2-2-0.7c-0.5-0.5-0.7-1-0.7-1.7l0-0.3c0.2-2,1.7-2.9,4.5-2.9h2.1V808.7z M810.4,808.6c0,1.9-0.8,3.5-2.5,4.7 c-1.7,1.2-3.8,1.8-6.4,1.8c-1.8,0-3.3-0.3-4.7-0.9c-1.4-0.6-2.5-1.5-3.2-2.6c-0.8-1.1-1.2-2.3-1.2-3.6h5.4c0.1,1,0.4,1.8,1.1,2.3 c0.7,0.5,1.6,0.8,2.8,0.8c1.1,0,1.9-0.2,2.5-0.6c0.6-0.4,0.8-0.9,0.8-1.6c0-0.7-0.3-1.2-1-1.6c-0.7-0.4-1.8-0.8-3.3-1.1 c-5-1.1-7.5-3.2-7.5-6.4c0-1.9,0.8-3.4,2.3-4.7c1.6-1.3,3.6-1.9,6.1-1.9c2.7,0,4.8,0.6,6.4,1.9c1.6,1.3,2.4,2.9,2.4,4.9h-5.6 c0-0.8-0.3-1.5-0.8-2c-0.5-0.5-1.3-0.8-2.4-0.8c-1,0-1.7,0.2-2.2,0.6c-0.5,0.4-0.8,1-0.8,1.6c0,0.6,0.3,1.1,0.9,1.5 c0.6,0.4,1.6,0.7,3,1c1.4,0.3,2.6,0.6,3.6,0.9C809,804.1,810.4,805.9,810.4,808.6z M823.2,793.2c-1.9,0-3.6,0.5-5.1,1.4 c-1.5,0.9-2.7,2.2-3.5,3.9c-0.8,1.7-1.2,3.6-1.2,5.7v0.5c0,3.2,1,5.7,2.9,7.6c1.9,1.9,4.5,2.9,7.6,2.9c1.8,0,3.4-0.3,4.8-1 s2.6-1.6,3.4-2.8l-2.8-3.1c-1.2,1.6-2.9,2.4-5.1,2.4c-1.4,0-2.6-0.4-3.5-1.2c-0.9-0.8-1.5-1.9-1.7-3.3h13.5v-2.3 c0-3.3-0.8-5.9-2.5-7.8C828.3,794.1,826.1,793.2,823.2,793.2z M826.9,802.1h-7.9c0.2-1.4,0.6-2.5,1.3-3.3c0.7-0.8,1.6-1.1,2.7-1.1 c1.2,0,2.1,0.3,2.8,1c0.7,0.7,1,1.7,1,2.9V802.1z M864.3,795.2c1.1,1.3,1.7,3.3,1.7,6v13.5h-5.7v-13.5c0-1.2-0.2-2.1-0.7-2.6 c-0.5-0.6-1.3-0.8-2.5-0.8c-1.7,0-2.9,0.8-3.5,2.4l0,14.5H848v-13.5c0-1.2-0.2-2.1-0.7-2.7c-0.5-0.5-1.3-0.8-2.5-0.8 c-1.6,0-2.8,0.7-3.5,2v15h-5.6v-21.1h5.3l0.2,2.4c1.5-1.8,3.5-2.8,6.1-2.8c2.7,0,4.6,1.1,5.6,3.2c1.5-2.1,3.6-3.2,6.3-3.2 C861.5,793.2,863.2,793.9,864.3,795.2z M879.4,793.2c-1.9,0-3.6,0.5-5.1,1.4c-1.5,0.9-2.7,2.2-3.5,3.9c-0.8,1.7-1.2,3.6-1.2,5.7v0.5 c0,3.2,1,5.7,2.9,7.6c1.9,1.9,4.5,2.9,7.6,2.9c1.8,0,3.4-0.3,4.8-1s2.6-1.6,3.4-2.8l-2.8-3.1c-1.2,1.6-2.9,2.4-5.1,2.4 c-1.4,0-2.6-0.4-3.5-1.2c-0.9-0.8-1.5-1.9-1.7-3.3h13.5v-2.3c0-3.3-0.8-5.9-2.5-7.8C884.6,794.1,882.3,793.2,879.4,793.2z M883.2,802.1h-7.9c0.2-1.4,0.6-2.5,1.3-3.3c0.7-0.8,1.6-1.1,2.7-1.1c1.2,0,2.1,0.3,2.8,1c0.7,0.7,1,1.7,1,2.9V802.1z M908.4,795.2 c1.1,1.3,1.7,3.3,1.7,5.9v13.7h-5.6v-13.5c0-1.2-0.3-2.1-0.8-2.6c-0.5-0.5-1.4-0.8-2.6-0.8c-1.6,0-2.8,0.7-3.6,2v14.9h-5.6v-21.1 h5.3l0.2,2.4c1.5-1.9,3.5-2.8,6.1-2.8C905.6,793.2,907.3,793.8,908.4,795.2z M924.9,810.3v4.3c-1.1,0.3-2.2,0.5-3.4,0.5 c-4,0-6-2-6.1-6v-11.4h-3.1v-4.1h3.1v-5.2h5.6v5.2h3.6v4.1h-3.6v10.5c0,0.8,0.1,1.3,0.4,1.7c0.3,0.3,0.9,0.5,1.7,0.5 C923.9,810.5,924.5,810.4,924.9,810.3z"/>
  <rect id="desk_6" x="1353" y="492" class="st3" width="134" height="68"/>
  <rect id="desk_5" x="1353" y="564" class="st3" width="134" height="68"/>
  <rect id="desk_4" x="1353" y="785" class="st3" width="134" height="68"/>
  <rect id="desk_3" x="1353" y="857" class="st3" width="134" height="68"/>
  <rect id="desk_2" x="1353" y="1107" class="st3" width="134" height="68"/>
  <rect id="desk_1" x="1353" y="1179" class="st3" width="134" height="68"/>
</svg>