<?xml version="1.0" encoding="utf-8"?>
<svg version="1.1" id="Desks" x="0px" y="0px" viewBox="0 0 2000 2706" style="enable-background:new 0 0 2000 2706;" xmlns="http://www.w3.org/2000/svg">
  <style type="text/css">
	.st0{fill:#FFFFFF;stroke:#1D1D1B;stroke-width:1.2234;stroke-miterlimit:10;}
	.st1{fill:none;stroke:#000000;stroke-width:2;stroke-miterlimit:10;}
	.st2{fill:#008BD0;}
</style>
  <path id="windows" class="st0" d="M987.9,454.6l-174.4,0.9l-0.1-25.6l174.4-0.9L987.9,454.6z M1065.9,838.4L1065,664l-25.6,0.1 l0.9,174.4L1065.9,838.4z M1545.9,2541.8l-12.5-2387.2l-26.8,0.1l12.5,2387.2L1545.9,2541.8z M1478.1,2521.9L440.2,2007.5l12-24 L1490,2497.9L1478.1,2521.9z"/>
  <path id="rooms" d="M742.5,1869.8L637.9,2069l44.5,22.2l-23.5,47.2l-108.1-53.9l23.5-47.2l53.7,26.8L732.6,1865l-10.9-5.4l4.7-10 L863,1917l-6.4,9.4L742.5,1869.8z M1034,925h40V795h-40V925z M676.6,1836.4l4.7-10l-33.9-16.1l3.6-7.3l-10-5l-3.1,7.8l-140.9-67 l91-172.9l59,34h65v63.1l-49.5,92l9.7,5l51.9-96.6L724,1600h13v-19h-83.6l-75.4-41l-207.9,387.1l-1.8-0.9l-23.5,47.2l111.3,55.5 l23.5-47.2L392,1938l99.8-189.4L676.6,1836.4z M1563.4,262H1505v101h-342l0-8l-9.4,0l-1.6,151h9.4l1.5-132H1506v45h57.4V262z M1563.4,683V526H1506v78h-344.8l0.6-47l-8.3,0l-1.4,110l8.3,1l0.7-53h345v68H1563.4z M872,428.1l-52.6-0.9l2.3-290.2h163l0.5,64 l0,0l79.4,78.1l0.6,29.9h8.6l0.3-22h22.1v-11h-23l-79.9-79.1l-0.4-59.9h163.5l-0.9,139h-9.2v11h9.2l-0.1,17l6.7,0l0.1-17h0.2v-11 h-0.1l1-139H1504v25h59.4v-36H1506H809l-2.4,301l-0.6,0v47l66,1.1V428.1z M1047.6,1256v16h22.4v-16h9v-108h18v-11h-18v-92h-5v-69 h-40v100h13.6v178V1256z M1063.7,359l-0.3,29H1034v40.1l-62-1.1v47l62,1.1V688h40l-0.9-329L1063.7,359z M818.3,1787.7l97-184.7h61.3 l87.7,44.4l-106.4,205.3l-4.4-2.1l-4.7,10l4.2,2l14.1,7.4l5-10l-5-2l78.3-150.3l99.1,49.5l-79.1,152.4l-50.4-23.8l-4.7,10l96,46.2 l4.7-10l-36.6-17.9l64.8-124.8l32.5,17.2l4.7-10l-32.1-16.9l159.3-305.8l-8.9-4.6l-61.3,117.1l-10.2-4.3l-4.4,9.3 c0,0,9.4,3.6,10.4,3.7l-80,153.5l-99.1-49.5l78.6-151.7l45.8,20.8l3.7-7.8l-45.2-21.3l47.3-91.3l0.3,0.1l4.7-10l-17.1-9.4l-4.7,10 l7.2,4l-101.2,195.4l-77.2-39.1V1581v-179.2l21-39.9l-0.3,0.7l103.9,52.7l4.7-10l-103.5-52.5l14.7-28l-14.5-7.7l-38.9,73.9H964v190 H793l-3,22h112.8l-101.1,192.5l9.8,5l1.6-3.1l89.5,41l4.7-10L818.3,1787.7z M760.8,2189.4l109.3,54.5l23.7-47.6l-109.3-54.5 L760.8,2189.4z M1510,1392h-198v10.8l-80.4-42.1l-4.9,9.8l92.4,48.5l-2.2,4.3l9,4l6.5-13.9l-2.8-1.5H1510v98h57.4v-159H1510V1392z M1510,2015h-234.8l-43.9-23.4l-4.7,10l24.4,13.5h-0.1v31h1l0.1,17l11.6,0l-0.1-17H1510v84h57.4v-243H1510V2015z M1510,1711h-230v11 h12.6l-54.7,106.3l-8.5-3.7l-4.7,10l8.2,3.6l-63,122.5l-3.3-1.6l-4.7,10l20.3,10l4.7-10l-7.2-3.5L1305,1722h205v48h57.4v-153H1510 V1711z M1508,791v46l-348.9-0.9l1.4-117.1l-8,0l-1.3,117l-13.1,0v47l23.2,0.1L1160,989h8l1.2-105.9L1508,884v64h59.4V791H1508z M1509,1135h-331.9l0.6-95l-10.7,0l-0.6,95H1146v11h20.3l-1.3,197l18,7l4-12h-11.2l1.3-192H1510v100h57.4v-195H1509V1135z M1249.8,2432.4l110.1,54.9l23.7-47.6l-110.1-54.9L1249.8,2432.4z M1168.3,2152.5l-9.8-5l-75.8,142.3l-90.1-44.9l-23.7,47.6 l178.9,89.2l23.7-47.6l-79-39.4L1168.3,2152.5z M1119.5,2057.1l69.1,33.3l-5.8,12l9.8,5l6-12.4l9.1,4.3l4.7-10l-88.2-42.3 L1119.5,2057.1z M1079,2024l-171.9-83.4l-4.7,10l171.2,83.9L1079,2024z M1510,2366h57.4v-125H1510V2366z M1510,2503.9l-25.4-13.1 l-23.7,47.6l49.2,24.6v0l53.2,28.8l4.2-120.8H1510V2503.9z"/>
  <path id="_x32_nd_florr" d="M717.2,1503h-19.5v-3.9l9.2-9.8c1.3-1.4,2.2-2.6,2.8-3.6c0.6-1,0.9-2,0.9-2.9c0-1.3-0.3-2.3-1-3 c-0.6-0.7-1.5-1.1-2.7-1.1c-1.3,0-2.3,0.4-3,1.3c-0.7,0.9-1.1,2-1.1,3.5h-5.7c0-1.7,0.4-3.3,1.2-4.7c0.8-1.4,2-2.6,3.5-3.4 c1.5-0.8,3.2-1.2,5.1-1.2c2.9,0,5.2,0.7,6.8,2.1s2.4,3.4,2.4,6c0,1.4-0.4,2.8-1.1,4.3c-0.7,1.5-2,3.2-3.8,5.1l-6.5,6.8h12.2V1503z M726.1,1481.9l0.2,2.4c1.5-1.9,3.5-2.8,6.1-2.8c2.2,0,3.9,0.7,5,2c1.1,1.3,1.7,3.3,1.7,5.9v13.7h-5.6v-13.5c0-1.2-0.3-2.1-0.8-2.6 c-0.5-0.5-1.4-0.8-2.6-0.8c-1.6,0-2.8,0.7-3.6,2v14.9h-5.6v-21.1H726.1z M742.4,1492.3c0-3.3,0.7-5.9,2.2-7.9c1.5-2,3.5-2.9,6.1-2.9 c2.1,0,3.8,0.8,5.1,2.3V1473h5.7v30h-5.1l-0.3-2.2c-1.4,1.8-3.2,2.6-5.4,2.6c-2.5,0-4.5-1-6-2.9 C743.2,1498.5,742.4,1495.8,742.4,1492.3z M748,1492.7c0,2,0.3,3.5,1,4.6c0.7,1.1,1.7,1.6,3,1.6c1.7,0,3-0.7,3.7-2.2v-8.4 c-0.7-1.5-1.9-2.2-3.7-2.2C749.4,1486,748,1488.2,748,1492.7z M777.3,1503v-17h-3.1v-4.1h3.1v-1.8c0-2.4,0.7-4.2,2-5.5 c1.4-1.3,3.3-2,5.7-2c0.8,0,1.7,0.1,2.9,0.4l-0.1,4.3c-0.5-0.1-1-0.2-1.7-0.2c-2.1,0-3.2,1-3.2,3v1.7h4.2v4.1H783v17H777.3z M796.1,1503h-5.7v-30h5.7V1503z M799.8,1492.2c0-2.1,0.4-4,1.2-5.6c0.8-1.6,2-2.9,3.5-3.8c1.5-0.9,3.3-1.3,5.3-1.3 c2.9,0,5.2,0.9,7,2.6c1.8,1.7,2.8,4.1,3,7.1l0,1.4c0,3.2-0.9,5.8-2.7,7.8c-1.8,2-4.2,2.9-7.3,2.9s-5.5-1-7.3-2.9s-2.7-4.6-2.7-8 V1492.2z M805.5,1492.6c0,2,0.4,3.5,1.1,4.6c0.8,1.1,1.8,1.6,3.2,1.6c1.4,0,2.4-0.5,3.2-1.6c0.8-1,1.2-2.7,1.2-5 c0-2-0.4-3.5-1.2-4.6c-0.8-1.1-1.8-1.6-3.2-1.6c-1.4,0-2.4,0.5-3.2,1.6C805.9,1488.7,805.5,1490.4,805.5,1492.6z M822.5,1492.2 c0-2.1,0.4-4,1.2-5.6c0.8-1.6,2-2.9,3.5-3.8c1.5-0.9,3.3-1.3,5.3-1.3c2.9,0,5.2,0.9,7,2.6c1.8,1.7,2.8,4.1,3,7.1l0,1.4 c0,3.2-0.9,5.8-2.7,7.8c-1.8,2-4.2,2.9-7.3,2.9s-5.5-1-7.3-2.9s-2.7-4.6-2.7-8V1492.2z M828.1,1492.6c0,2,0.4,3.5,1.1,4.6 c0.8,1.1,1.8,1.6,3.2,1.6c1.4,0,2.4-0.5,3.2-1.6c0.8-1,1.2-2.7,1.2-5c0-2-0.4-3.5-1.2-4.6c-0.8-1.1-1.8-1.6-3.2-1.6 c-1.4,0-2.4,0.5-3.2,1.6C828.5,1488.7,828.1,1490.4,828.1,1492.6z M857.8,1487.2c-0.8-0.1-1.4-0.2-2-0.2c-2.1,0-3.5,0.7-4.2,2.2 v13.8H846v-21.1h5.3l0.2,2.5c1.1-1.9,2.7-2.9,4.7-2.9c0.6,0,1.2,0.1,1.8,0.3L857.8,1487.2z"/>
  <path id="Entrance" d="M1041.3,1298.6l-34.1,9.2l24.9-43.4L1041.3,1298.6z M765.6,1582.7l-25.3-24.7l50-0.5L765.6,1582.7z"/>
  <path id="Doors" class="st1" d="M1096,1145l-0.1-63.1c0,0,51.9-3.3,51,63.1 M1153,719l62.1,0.1c0,0,3.3-51.9-63.1-51 M1154,557 l63.1,0.1c0,0,1.9-51-65.1-51 M1155,356l63.1,0.1c0,0,3.3-51.9-63.1-51 M1146,287l0.1-63.1c0,0-51.9-3.3-51,63.1 M1073,308.1 c-66.4-1-63.1,51-63.1,51l63.1-0.1 M1167,1039l63.1,0.1c0,0,3.3-51.9-63.1-51 M1074,975l63.1,0.1c0,0,3.3-51.9-63.1-51 M1228.1,1369.6c27.5-60.4-21.4-78.2-21.4-78.2l-25.2,57.8 M1121.6,1404.8c-29.9,59.3,18.3,79,18.3,79l27.5-56.8 M1227.8,2002.1 c30.9-58.7-16.9-79.3-16.9-79.3l-28.5,56.3 M1012.8,1892.1c30.9-58.7-16.9-79.3-16.9-79.3l-28.5,56.3 M949,1860l28-57.5 c0,0-45.4-25.4-74,34.5 M1192.2,2108.1l-56.5-28c0,0-28.6,44.4,31.3,72.9 M1078.8,2024.1c-30.9,58.7,16.9,79.3,16.9,79.3l28.5-56.3 M1211.2,2089.7c34.9,56.5,76.9,25.7,76.9,25.7l-34-53.1 M861.8,1917.1c-30.9,58.7,16.9,79.3,16.9,79.3l28.5-56.3 M682,1827 c-30.9,58.7,16.7,79.4,16.7,79.4l28.5-56.3 M738,1581l-0.9,63.1c0,0,54.9,3.3,54.8-63.1 M1294.5,1468.9c59.2,30,78.3-18.2,78.3-18.2 l-56.1-27.6 M672,1757.4c-59.6-29.3-78.8,19.1-78.8,19.1l57.1,26.9 M1178,1560.2c-29.9,59.3,18.3,79,18.3,79l27.5-56.8 M1018,1316 l62.7,32c0,0,27-48-32.7-77"/>
  <rect id="desk_8" x="1353" y="175" class="st2" width="134" height="68"/>
  <rect id="desk_7" x="1353" y="247" class="st2" width="134" height="68"/>
  <rect id="desk_6_00000152954642243013093720000006804999289702433667_" x="1353" y="420" class="st2" width="134" height="68"/>
  <rect id="desk_5_00000114063178759200308670000012881848961734180793_" x="1353" y="492" class="st2" width="134" height="68"/>
  <rect id="desk_4" x="1353" y="653" class="st2" width="134" height="68"/>
  <rect id="desk_3" x="1353" y="725" class="st2" width="134" height="68"/>
  <rect id="desk_2" x="1353" y="942" class="st2" width="134" height="68"/>
  <rect id="desk_1" x="1353" y="1014" class="st2" width="134" height="68"/>
</svg>