<?xml version="1.0" encoding="utf-8"?>
<!-- Generator: Adobe Illustrator 27.1.0, SVG Export Plug-In . SVG Version: 6.00 Build 0)  -->
<svg version="1.1" id="Ebene_1" xmlns="http://www.w3.org/2000/svg" xmlns:xlink="http://www.w3.org/1999/xlink" x="0px" y="0px"
	 viewBox="0 0 600 600" style="enable-background:new 0 0 600 600;" xml:space="preserve">
<style type="text/css">
	.st0{fill:#1588CA;stroke:#000000;stroke-width:2;stroke-miterlimit:10;}
	.st1{fill:#FFFFFF;stroke:#000000;stroke-width:1.9928;stroke-miterlimit:10;}
	.st2{fill:#EAEAEA;stroke:#000000;stroke-width:2;stroke-linecap:round;stroke-miterlimit:10;}
	.st3{fill:#FFFFFF;stroke:#000000;stroke-width:2;stroke-miterlimit:10;}
	.st4{fill:none;stroke:#1D1D1B;stroke-width:4;stroke-linecap:round;stroke-linejoin:round;}
	.st5{fill:#1588CA;stroke:#000000;stroke-width:1.9928;stroke-miterlimit:10;}
	.st6{stroke:#000000;stroke-miterlimit:10;}
</style>
<path class="st0" d="M190.1,371.3c-31,4.1-54.2,30.6-54.2,61.9v85.9L307,519l-53.9-156.2L190.1,371.3z"/>
<path class="st0" d="M464,433.2c0-31.3-23.2-57.8-54.2-61.9l-61.1-8.4l-49.8,156.2l165.2,0.1L464,433.2L464,433.2z"/>
<rect x="252.1" y="324.5" class="st1 skin" width="100.2" height="40.2"/>
<path class="st2" d="M243.8,361.7l43,119h27l43-119H243.8z"/>
<path class="st0" d="M300.4,513.3l-11.7-30l6.4-95.6h10.2l6.9,95.6L300.4,513.3z M319.8,361.7h-37.5l13.5,26h9.2L319.8,361.7z
	 M288.8,483.7l-40-122h-6l-17.2,35.2l24.5,12.3c3.3,1.7,5,5.4,4.1,9l-6.5,26.2L288.8,483.7z M360.9,361.7h-5.7l-42.4,121l43.8-35.5
	l-6.8-27.2c-0.9-3.7,0.9-7.6,4.3-9.3l25.5-12.7L360.9,361.7z M206.9,478.3v41.3 M401.6,478.3v41.3"/>
<path class="st3 skin" d="M385,207.2v-3.4l-37.9-48.6c-1.9,0.2-3.6,0.3-4.7,0.3h-95.7l-28.6,48.8v2.9c-12.6,0-22.8,10.2-22.8,22.8
	s10.2,22.8,22.8,22.8v22.8c-0.1,11.2,3.9,22,11.2,30.4l21.3,24l11.6,13.1c5.8,6.5,14,10.3,22.8,10.3h33.2c8.7,0,17-3.8,22.8-10.3
	l32.8-37.1c7.3-8.4,11.3-19.2,11.2-30.4v-22.8c12.6,0,22.8-10.2,22.8-22.8S397.6,207.2,385,207.2z"/>
<path class="st4" d="M304.2,276.1c1.5,6.9,16.5,2.1,20.1-1.5"/>
<path class="st5" d="M369,146c9.3-11.3,12.1-30.3,6.3-46.3c-1.3-3.5-2.9-6.6-4.9-9.4l-6.5-9.3c0,0-14.1,17.7-31.5,18.8
	c-13,0.8-69.3-0.2-69.3-0.2c-20.3,0-40.1,26.4-35.4,52.9c-7,7.4-12.3,17.5-11.4,29l1.8,23.5l28.8-49.5h95c1.1,0,2.8-0.1,4.7-0.3
	l38.6,49.8l1.8-23.5C387.8,166.5,380.7,152.5,369,146z"/>
<path class="st6" d="M271.5,243.4c2.9-5.3,1-11.9-4.3-14.8c-5.3-2.9-11.9-1-14.8,4.3c-2.9,5.3-1,11.9,4.3,14.8
	C262,250.7,268.6,248.7,271.5,243.4z M360.2,224.3c-6,0.5-10.5,5.7-10.1,11.8c0.5,6,5.7,10.5,11.7,10.1c6-0.5,10.5-5.7,10.1-11.7
	C371.5,228.3,366.3,223.8,360.2,224.3z M329.9,316.4c0.1-2.9,1.7-5.8,2.5-8.7c0.4-1.2,0.9-2.7,0.6-3.8c-0.2-0.6-2.1-1.2-3.1-0.9
	c-5.6,1.6-11.3,3.1-16.7,5.2c-6,2.4-8.1,6.4-6.9,11.6c1.4,6.1,5.5,9.3,11.6,9.3C326.2,328.9,329.7,325,329.9,316.4z"/>
<path class="st0" d="M493.9,417.1l-29.3,102.1H406l29.3-102.1H493.9z M106.6,417.1l29.3,102.1h58.6l-29.3-102.1H106.6z"/>
<path class="st3 skin" d="M522.8,417.8L435,418l12.5-56.6c1.3-6,5.2-11.2,10.5-14.3l32-18.3c6.1-3.5,13.8-1.6,17.7,4.2
	c2,3,2.7,6.8,1.9,10.3s-3,6.6-6.1,8.5l-24.6,14.8h43.9c8.1,0,14.6,6.6,14.6,14.6v22C537.5,411.2,530.9,417.8,522.8,417.8z
	 M63.1,403.1v-22c0-8.1,6.6-14.6,14.6-14.6h43.9L97,351.7c-3.1-1.9-5.3-4.9-6.1-8.5c-0.8-3.6-0.1-7.3,1.9-10.3
	c3.9-5.8,11.6-7.7,17.7-4.2l32,18.3c5.4,3.1,9.2,8.3,10.5,14.3l12.5,56.6l-87.9-0.2C69.6,417.8,63.1,411.2,63.1,403.1z"/>
</svg>
