<?xml version="1.0" encoding="utf-8"?>
<!-- Generator: Adobe Illustrator 27.1.0, SVG Export Plug-In . SVG Version: 6.00 Build 0)  -->
<svg version="1.1" id="Ebene_1" xmlns="http://www.w3.org/2000/svg" xmlns:xlink="http://www.w3.org/1999/xlink" x="0px" y="0px"
	 viewBox="0 0 400 600" style="enable-background:new 0 0 400 600;" xml:space="preserve">
<style type="text/css">
	.st0{fill:#FFFFFF;}
	.st1{fill:#B0C9D2;stroke:#000000;stroke-width:2;stroke-miterlimit:10;}
	.st2{fill:#189CD8;stroke:#000000;stroke-width:2;stroke-miterlimit:10;}
	.st3{fill:#FFFFFF;stroke:#000000;stroke-width:2;stroke-miterlimit:10;}
	.st4{fill:none;stroke:#000000;stroke-width:4;stroke-linecap:round;}
	.st5{fill:#0381C0;stroke:#000000;stroke-width:2;stroke-miterlimit:10;}
	.st6{stroke:#000000;stroke-miterlimit:10;}
</style>
<rect x="134" y="313" class="st0" width="135" height="172"/>
<path class="st1" d="M140.5,427v93.2H260v-99.3c-29.3,33-66.5,59.9-99.5,30.6C158.1,449.5,142.6,429.4,140.5,427z"/>
<path class="st2" d="M82.7,388.4l57.8-7.2v139.1H43.4v-87.1C43.3,410.4,60.1,391.2,82.7,388.4z M357.1,432.9
	c0.2-22.7-16.7-42-39.3-44.8l-57.8-7.5v139.7h97.1L357.1,432.9L357.1,432.9z"/>
<path class="st3" d="M299.2,230.3c0-10.8-7.6-19.8-17.8-21.9l1-16.7h-87.8h-76.5l1.1,18.4c-10.2,2.1-17.9,11.1-17.9,21.9
	c0,11.8,9.1,21.4,20.6,22.3l0.3,4.5c1.8,41.6,35.8,74.1,76.9,74.7c1.5,0,3.1,0,4.6-0.1c40.5-1.8,72.9-34.2,74.6-74.6l0.4-6.3
	C290.2,251.6,299.2,242,299.2,230.3z"/>
<path class="st4" d="M188,252.1c1.5,6.9,16.5,2.1,20.1-1.5"/>
<path class="st5" d="M154.3,266.9c0,0-3.1-3.1-3.6,1.1c2.9,6.5,5.1,12.7,8.4,18.2c9.6,16.5,23.6,26.4,43.2,25.3
	c20.1-1.1,33.6-12.3,41.3-30.7c8.7-16.9-1.1-7.4-5.6-5C218.9,286.6,167.8,280.9,154.3,266.9z M200.3,79.6
	c-57.7,0-104.6,46.8-104.6,104.6v71v130.6V427h71.8l-0.9-101l0,0c-1.5-0.7-2.9-1.5-4.4-2.3c-1-0.5-1.9-1.1-2.8-1.7
	c-0.3-0.2-0.6-0.4-0.9-0.6c-0.5-0.3-0.9-0.6-1.4-0.9c-0.4-0.2-0.7-0.5-1.1-0.7c-0.4-0.3-0.8-0.6-1.3-0.9s-1-0.7-1.4-1.1
	c-0.5-0.4-0.9-0.7-1.4-1.1s-1.1-0.8-1.6-1.3c-0.3-0.2-0.6-0.5-0.9-0.7c-0.5-0.4-1-0.9-1.5-1.3c-0.2-0.2-0.5-0.4-0.7-0.6
	c-1.5-1.4-2.9-2.8-4.3-4.3c-0.1-0.1-0.2-0.2-0.3-0.3c-0.7-0.7-1.3-1.5-2-2.2l-0.1-0.1c-4.3-5-7.9-10.6-10.8-16.6l0,0
	c-4.4-9.2-7.1-19.5-7.6-30.4l-0.3-4.5c-11.5-0.9-20.6-10.6-20.6-22.3c0-10.8,7.7-19.9,17.9-21.9l-1.1-18.4h76.5h87.8l-1,16.7
	c10.1,2.1,17.8,11.1,17.8,21.9c0,11.7-9,21.3-20.5,22.3l-0.4,6.3c-1.2,28.2-17.4,52.5-40.7,65.2v46.4c-0.1,7.7,5.6,15.2,13.1,16.1
	l9.3,0.2h44.8V184.2C304.8,126.4,258,79.6,200.3,79.6z M262.8,230.8c-6.4-1.7-12.1-4.9-18.7-5.8c-6.6-0.9-13.4-0.8-19.7,1.6l0,0
	c-0.2,0.2-0.3,0.2-0.5,0.1c0,0,0,0-0.1,0c-0.2-0.1-0.4-0.4-0.3-0.7c2.9-5.4,8-8.9,13.4-11.5c4.6-2.1,11.4-4.2,16.4-2.8
	c1.1,0.3,0.8,1.8-0.2,1.9c-5.7,0.7-10.9,0.6-16.3,3.3c-4.3,2.1-7.9,5-11.3,8.4c5.9-2.8,12.2-3.5,18.8-2.7c6.3,0.7,14.3,2.5,19.1,7.1
	C264,230.1,263.5,231,262.8,230.8z M134.6,229.8c5.2-4,13.4-4.9,19.7-4.9c6.6,0,12.8,1.4,18.3,4.8c-2.9-3.7-6.2-7-10.3-9.6
	c-5-3.2-10.2-3.7-15.8-5c-1-0.2-1.2-1.8,0-2c5.2-0.8,11.7,2,16,4.6c5.1,3.1,9.8,7.2,12.1,12.9c0.1,0.3-0.1,0.6-0.3,0.7
	c0,0,0,0-0.1,0c-0.2,0.1-0.4,0-0.5-0.2l0,0c-6-3.1-12.8-4-19.4-3.8c-6.7,0.2-12.7,2.7-19.2,3.7C134.4,231.2,134,230.2,134.6,229.8z"
	/>
<path class="st6" d="M154.3,266.9c0,0-3.1-3.1-3.6,1.1c2.9,6.5,5.1,12.7,8.4,18.2c9.6,16.5,23.6,26.4,43.2,25.3
	c20.1-1.1,33.6-12.3,41.3-30.7c8.7-16.9-1.1-7.4-5.6-5C218.9,286.6,167.8,280.9,154.3,266.9z M262.8,230.8
	c-6.4-1.7-12.1-4.9-18.7-5.8c-6.6-0.9-13.4-0.8-19.7,1.6l0,0c-0.2,0.2-0.3,0.2-0.5,0.1c0,0,0,0-0.1,0c-0.2-0.1-0.4-0.4-0.3-0.7
	c2.9-5.4,8-8.9,13.4-11.5c4.6-2.1,11.4-4.2,16.4-2.8c1.1,0.3,0.8,1.8-0.2,1.9c-5.7,0.7-10.9,0.6-16.3,3.3c-4.3,2.1-7.9,5-11.3,8.4
	c5.9-2.8,12.2-3.5,18.8-2.7c6.3,0.7,14.3,2.5,19.1,7.1C264,230.1,263.5,231,262.8,230.8z M134.6,229.8c5.2-4,13.4-4.9,19.7-4.9
	c6.6,0,12.8,1.4,18.3,4.8c-2.9-3.7-6.2-7-10.3-9.6c-5-3.2-10.2-3.7-15.8-5c-1-0.2-1.2-1.8,0-2c5.2-0.8,11.7,2,16,4.6
	c5.1,3.1,9.8,7.2,12.1,12.9c0.1,0.3-0.1,0.6-0.3,0.7c0,0,0,0-0.1,0c-0.2,0.1-0.4,0-0.5-0.2l0,0c-6-3.1-12.8-4-19.4-3.8
	c-6.7,0.2-12.7,2.7-19.2,3.7C134.4,231.2,134,230.2,134.6,229.8z"/>
<path class="st3" d="M134.8,255.9c-1.7,8.4,0.7,12.2,1.1,20.5c0.2,3.3,0.1,6.6-0.4,9.9c-0.9,6.1-3.4,9.6-9.2,11.6
	c-3.7,1.2-9.9-1.3-11.4-4.9c-1.8-4.5-1.9-9.3,0-13.8c3.9-9.1,7.3-9.1,13.6-15.7C130,261.7,133.5,257.6,134.8,255.9z M135.8,244.5
	c-11.8,2.9-23.1,7.3-30.2,15.7c-5.4,6.9,6.4,14.1,13.8,4.1C124.6,257.2,136.1,244.4,135.8,244.5z"/>
</svg>
