<?xml version="1.0" encoding="utf-8"?>
<!-- Generator: Adobe Illustrator 27.1.0, SVG Export Plug-In . SVG Version: 6.00 Build 0)  -->
<svg version="1.1" id="Ebene_1" xmlns="http://www.w3.org/2000/svg" xmlns:xlink="http://www.w3.org/1999/xlink" x="0px" y="0px"
	 viewBox="0 0 400 600" style="enable-background:new 0 0 400 600;" xml:space="preserve">
<style type="text/css">
	.st0{fill:#1588CA;stroke:#000000;stroke-width:2;stroke-miterlimit:10;}
	.st1{fill:#FFFFFF;stroke:#000000;stroke-width:1.9697;stroke-miterlimit:10;}
	.st2{fill:#EAEAEA;stroke:#000000;stroke-width:2;stroke-linecap:round;stroke-miterlimit:10;}
	.st3{fill:#FFFFFF;stroke:#000000;stroke-width:2;stroke-miterlimit:10;}
	.st4{fill:none;stroke:#1D1D1B;stroke-width:4;stroke-linecap:round;stroke-linejoin:round;}
	.st5{stroke:#000000;stroke-miterlimit:10;}
	.st6{fill:#1588CA;stroke:#000000;stroke-width:1.9943;stroke-miterlimit:10;}
</style>
<path class="st0" d="M90.4,338.2c-31,4.1-54.2,30.6-54.2,61.9V486l171.1-0.1l-53.9-156.2L90.4,338.2z"/>
<path class="st0" d="M364.3,400.1c0-31.3-23.2-57.8-54.2-61.9l-61.1-8.4L199.1,486l165.2,0.1V400.1z"/>
<rect x="152.7" y="294.4" class="st1 skin" width="99.9" height="42"/>
<path class="st2" d="M144.2,328.6l43,119h27l43-119H144.2z"/>
<path class="st0" d="M200.7,480.2l-11.7-30l6.4-95.6h10.2l6.9,95.6L200.7,480.2z M220.1,328.6h-37.5l13.5,26h9.2L220.1,328.6z
	 M189.1,450.6l-40-122h-6L126,363.8l24.5,12.3c3.3,1.7,5,5.4,4.1,9l-6.5,26.2L189.1,450.6z M261.2,328.6h-5.7l-42.4,121l43.8-35.5
	l-6.8-27.2c-0.9-3.7,0.9-7.6,4.3-9.3l25.5-12.7L261.2,328.6z M107.2,445.2v41.3"/>
<path class="st3 skin" d="M285.3,174.1v-3.4l-37.9-48.6c-1.9,0.2-3.6,0.3-4.7,0.3H147l-28.6,48.8v2.9c-12.6,0-22.8,10.2-22.8,22.8
	s10.2,22.8,22.8,22.8v22.8c-0.1,11.2,3.9,22,11.2,30.4l21.3,24l11.6,13.1c5.8,6.5,14,10.3,22.8,10.3h33.2c8.7,0,17-3.8,22.8-10.3
	l32.8-37.1c7.3-8.4,11.3-19.2,11.2-30.4v-22.8c12.6,0,22.8-10.2,22.8-22.8S297.9,174.1,285.3,174.1z"/>
<path class="st4" d="M189.5,219c1.5,6.9,16.5,2.1,20.1-1.5"/>
<path class="st5" d="M246.2,255.1c-7.7,18.4-21.2,29.6-41.3,30.7c-19.6,1.1-33.6-8.8-43.2-25.3c-3.2-5.6-5.4-11.7-8.4-18.2
	c0.5-4.2,3.6-1.1,3.6-1.1c13.5,13.9,64.6,19.7,83.7,8.8C245.1,247.7,254.9,238.2,246.2,255.1z M260.8,197.2
	c-6.4-1.7-12.1-4.9-18.7-5.8c-6.6-0.9-13.4-0.8-19.7,1.6l0,0c-0.2,0.2-0.3,0.2-0.5,0.1c0,0,0,0-0.1,0c-0.2-0.1-0.4-0.4-0.3-0.7
	c2.9-5.4,8-8.9,13.4-11.5c4.6-2.1,11.4-4.2,16.4-2.8c1.1,0.3,0.8,1.8-0.2,1.9c-5.7,0.7-10.9,0.6-16.3,3.3c-4.3,2.1-7.9,5-11.3,8.4
	c5.9-2.8,12.2-3.5,18.8-2.7c6.3,0.7,14.3,2.5,19.1,7.1C262,196.5,261.5,197.4,260.8,197.2z M132.6,196.3c5.2-4,13.4-4.9,19.7-4.9
	c6.6,0,12.8,1.4,18.3,4.8c-2.9-3.7-6.2-7-10.3-9.6c-5-3.2-10.2-3.7-15.8-5c-1-0.2-1.2-1.8,0-2c5.2-0.8,11.7,2,16,4.6
	c5.1,3.1,9.8,7.2,12.1,12.9c0.1,0.3-0.1,0.6-0.3,0.7c0,0,0,0-0.1,0c-0.2,0.1-0.4,0-0.5-0.2l0,0c-6-3.1-12.8-4-19.4-3.8
	c-6.7,0.2-12.7,2.7-19.2,3.7C132.4,197.6,132,196.7,132.6,196.3z"/>
<path class="st6" d="M269.3,112.9c9.3-11.3,12.1-30.3,6.3-46.3c-1.3-3.5-2.9-6.6-4.9-9.4l-6.5-9.3c0,0-14.1,17.7-31.5,18.8
	c-13,0.8-69.4-0.2-69.4-0.2c-20.3,0-40.2,26.4-35.5,52.9c-7.1,7.4-12.3,17.5-11.4,29l1.8,23.5l28.8-49.5h95.2c1.1,0,2.8-0.1,4.7-0.3
	l38.7,49.8l1.8-23.5C288.2,133.4,281.1,119.4,269.3,112.9z"/>
<path class="st3" d="M132.8,222.3c-1.7,8.4,0.7,12.2,1.1,20.5c0.2,3.3,0.1,6.6-0.4,9.9c-0.9,6.1-3.4,9.6-9.2,11.6
	c-3.7,1.2-9.9-1.3-11.4-4.9c-1.8-4.5-1.9-9.3,0-13.8c3.9-9.1,7.3-9.1,13.6-15.7C128,228.2,131.5,224,132.8,222.3z M133.8,211
	c-11.8,2.9-23.1,7.3-30.2,15.7c-5.4,6.9,6.4,14.1,13.8,4.1C122.6,223.7,134.1,210.9,133.8,211z"/>
</svg>
