<?xml version="1.0" encoding="utf-8"?>
<!-- Generator: Adobe Illustrator 27.1.0, SVG Export Plug-In . SVG Version: 6.00 Build 0)  -->
<svg version="1.1" id="Ebene_1" xmlns="http://www.w3.org/2000/svg" xmlns:xlink="http://www.w3.org/1999/xlink" x="0px" y="0px"
	 viewBox="0 0 600 600" style="enable-background:new 0 0 600 600;" xml:space="preserve">
<style type="text/css">
	.st0{fill:#1588CA;stroke:#000000;stroke-width:2;stroke-miterlimit:10;}
	.st1{fill:#FFFFFF;stroke:#000000;stroke-width:2;stroke-miterlimit:10;}
	.st2{fill:#EAEAEA;stroke:#000000;stroke-width:2;stroke-linecap:round;stroke-miterlimit:10;}
	.st3{fill:none;stroke:#1D1D1B;stroke-width:4;stroke-linecap:round;stroke-linejoin:round;}
	.st4{stroke:#000000;stroke-miterlimit:10;}
	.st5{fill:#1588CA;stroke:#000000;stroke-width:1.9937;stroke-miterlimit:10;}
	.st6{fill:#FFFFFF;stroke:#66CCFF;stroke-width:10;stroke-linecap:round;stroke-miterlimit:10;}
</style>
<path class="st0" d="M158.1,370.3c-31,4.1-54.2,30.6-54.2,61.9v85.9L275,518l-53.9-156.2L158.1,370.3z"/>
<path class="st0" d="M432,432.2c0-31.3-23.2-57.8-54.2-61.9l-61.1-8.4l-49.8,156.2l165.2,0.1L432,432.2L432,432.2z"/>
<rect x="219" y="321" class="st1 skin" width="101" height="49"/>
<path class="st2" d="M211.8,360.7l43,119h27l43-119H211.8z"/>
<path class="st0" d="M268.4,512.3l-11.7-30l6.4-95.6h10.2l6.9,95.6L268.4,512.3z M287.8,360.7h-37.5l13.5,26h9.2L287.8,360.7z
	 M256.8,482.7l-40-122h-6l-17.2,35.2l24.5,12.3c3.3,1.7,5,5.4,4.1,9l-6.5,26.2L256.8,482.7z M328.9,360.7h-5.7l-42.4,121l43.8-35.5
	l-6.8-27.2c-0.9-3.7,0.9-7.6,4.3-9.3l25.5-12.7L328.9,360.7z M174.9,477.3v41.3 M369.6,477.3v41.3"/>
<path class="st1 skin" d="M353,206.2v-3.4l-37.9-48.6c-1.9,0.2-3.6,0.3-4.7,0.3h-95.7l-28.6,48.8v2.9c-12.6,0-22.8,10.2-22.8,22.8
	s10.2,22.8,22.8,22.8v22.8c-0.1,11.2,3.9,22,11.2,30.4l21.3,24l11.6,13.1c5.8,6.5,14,10.3,22.8,10.3h33.2c8.7,0,17-3.8,22.8-10.3
	l32.8-37.1c7.3-8.4,11.3-19.2,11.2-30.4v-22.8c12.6,0,22.8-10.2,22.8-22.8S365.6,206.2,353,206.2z"/>
<path class="st3" d="M272.2,275.1c1.5,6.9,16.5,2.1,20.1-1.5"/>
<path class="st4" d="M239.5,242.4c2.9-5.3,1-11.9-4.3-14.8c-5.3-2.9-11.9-1-14.8,4.3c-2.9,5.3-1,11.9,4.3,14.8
	C230,249.7,236.6,247.7,239.5,242.4z M328.2,223.3c-6,0.5-10.5,5.7-10.1,11.8c0.5,6,5.7,10.5,11.7,10.1c6-0.5,10.5-5.7,10.1-11.7
	C339.5,227.3,334.3,222.8,328.2,223.3z M297.9,315.4c0.1-2.9,1.7-5.8,2.5-8.7c0.4-1.2,0.9-2.7,0.6-3.8c-0.2-0.6-2.1-1.2-3.1-0.9
	c-5.6,1.6-11.3,3.1-16.7,5.2c-6,2.4-8.1,6.4-6.9,11.6c1.4,6.1,5.5,9.3,11.6,9.3C294.2,327.9,297.7,324,297.9,315.4z"/>
<path class="st5" d="M337,145c9.3-11.3,12.1-30.3,6.3-46.3c-1.3-3.5-2.9-6.6-4.9-9.4l-6.5-9.3c0,0-14.1,17.7-31.5,18.8
	c-13,0.8-69.4-0.2-69.4-0.2c-20.3,0-40.1,26.4-35.5,52.9c-7.1,7.4-12.3,17.5-11.4,29l1.8,23.5l28.8-49.5h95.1c1.1,0,2.8-0.1,4.7-0.3
	l38.7,49.8l1.8-23.5C355.9,165.5,348.7,151.5,337,145z"/>
<path class="st0" d="M461.9,416.1l-29.3,102.1H374l29.3-102.1H461.9z"/>
<path class="st1 skin" d="M490.8,416.8L403,417l12.5-56.6c1.3-6,5.2-11.2,10.5-14.3l32-18.3c6.1-3.5,13.8-1.6,17.7,4.2
	c2,3,2.7,6.8,1.9,10.3s-3,6.6-6.1,8.5l-24.6,14.8h43.9c8.1,0,14.6,6.6,14.6,14.6v22C505.5,410.2,498.9,416.8,490.8,416.8z"/>
<path class="st6" d="M558.9,310.3c0,20.8-16.9,37.7-37.7,37.7s-37.7-16.9-37.7-37.7c0-20.8,16.9-37.7,37.7-37.7
	C542,272.6,558.9,289.5,558.9,310.3z M501.8,343.1l-26.2,41.8"/>
</svg>
