<?xml version="1.0" encoding="utf-8"?>
<svg version="1.1" id="Ebene_1" x="0px" y="0px" viewBox="0 0 42.5 42.5" style="enable-background:new 0 0 42.5 42.5;" xmlns="http://www.w3.org/2000/svg">
  <path d="M 31.801 25.72 L 21.347 25.72 C 20.859 25.72 20.441 25.301 20.441 24.814 C 20.441 24.326 20.859 23.907 21.347 23.907 L 31.801 23.907 C 32.289 23.907 32.707 24.326 32.707 24.814 C 32.707 25.301 32.359 25.72 31.801 25.72 Z M 32.707 29.344 C 32.707 28.856 32.289 28.438 31.801 28.438 L 21.347 28.438 C 20.859 28.438 20.441 28.856 20.441 29.344 C 20.441 29.832 20.859 30.25 21.347 30.25 L 31.801 30.25 C 32.359 30.25 32.707 29.832 32.707 29.344 Z M 37.726 38.753 C 38.005 38.614 38.144 38.335 38.144 37.986 L 38.144 20.074 C 38.144 19.586 37.726 19.168 37.238 19.168 L 32.634 19.168 L 16.189 19.168 C 15.701 19.168 15.283 19.586 15.283 20.074 L 15.283 34.362 C 15.283 34.85 15.701 35.268 16.189 35.268 L 31.174 35.268 L 36.889 38.823 C 37.029 38.893 37.238 38.962 37.377 38.962 C 37.447 38.893 37.586 38.893 37.726 38.753 Z M 17.095 20.98 L 36.401 20.98 L 36.401 36.383 L 31.871 33.595 C 31.732 33.526 31.592 33.456 31.383 33.456 L 17.095 33.456 L 17.095 20.98 Z" style=""/>
  <g>
    <path d="M 21.908 14.359 C 21.908 14.847 21.49 15.265 21.002 15.265 L 10.548 15.265 C 10.06 15.265 9.642 14.847 9.642 14.359 C 9.642 13.871 10.06 13.453 10.548 13.453 L 21.002 13.453 C 21.56 13.453 21.908 13.871 21.908 14.359 Z M 26.927 4.95 C 27.206 5.089 27.345 5.368 27.345 5.717 L 27.345 18.629 C 27.345 19.117 26.927 19.535 26.439 19.535 L 5.39 19.535 C 4.902 19.535 4.484 19.117 4.484 18.629 L 4.484 9.341 C 4.484 8.853 4.902 8.435 5.39 8.435 L 20.375 8.435 L 26.09 4.88 C 26.23 4.81 26.439 4.741 26.578 4.741 C 26.648 4.81 26.787 4.81 26.927 4.95 Z M 6.296 17.723 L 25.602 17.723 L 25.602 7.32 L 21.072 10.108 C 20.933 10.177 20.793 10.247 20.584 10.247 L 6.296 10.247 L 6.296 17.723 Z" style="transform-box: fill-box; transform-origin: 50% 50%;" transform="matrix(-1, 0, 0, -1, 0, -0.000001)"/>
  </g>
</svg>