<?xml version="1.0" encoding="utf-8"?>
<svg version="1.1" id="Ebene_1" x="0px" y="0px" viewBox="0 0 42.5 42.5" style="enable-background:new 0 0 42.5 42.5;" xmlns="http://www.w3.org/2000/svg">
  <path d="M 24.333 13.305 L 11.333 13.305 C 10.633 13.305 10.033 13.905 10.033 14.605 C 10.033 15.305 10.633 15.905 11.333 15.905 L 24.333 15.905 C 25.033 15.905 25.633 15.305 25.633 14.605 C 25.633 13.905 25.133 13.305 24.333 13.305 Z M 32.833 3.605 C 33.233 3.805 33.433 4.205 33.433 4.705 L 33.433 19.405 C 33.433 20.105 32.833 20.705 32.133 20.705 L 4.933 20.705 C 4.233 20.705 3.633 20.105 3.633 19.405 L 3.633 9.905 C 3.633 9.205 4.233 8.605 4.933 8.605 L 23.433 8.605 L 31.633 3.505 C 31.833 3.405 32.133 3.305 32.333 3.305 C 32.433 3.405 32.633 3.405 32.833 3.605 Z M 6.233 18.105 L 30.933 18.105 L 30.933 7.005 L 24.433 11.005 C 24.233 11.105 24.033 11.205 23.733 11.205 L 6.233 11.205 L 6.233 18.105 Z" style="transform-box: fill-box; transform-origin: 50% 50%;" transform="matrix(-1, 0, 0, -1, -0.000001, 0)"/>
  <path d="M 29.131 28.348 L 16.131 28.348 C 15.431 28.348 14.831 27.748 14.831 27.048 C 14.831 26.348 15.431 25.748 16.131 25.748 L 29.131 25.748 C 29.831 25.748 30.431 26.348 30.431 27.048 C 30.431 27.748 29.931 28.348 29.131 28.348 Z M 37.631 38.048 C 38.031 37.848 38.231 37.448 38.231 36.948 L 38.231 22.248 C 38.231 21.548 37.631 20.948 36.931 20.948 L 9.731 20.948 C 9.031 20.948 8.431 21.548 8.431 22.248 L 8.431 31.748 C 8.431 32.448 9.031 33.048 9.731 33.048 L 28.231 33.048 L 36.431 38.148 C 36.631 38.248 36.931 38.348 37.131 38.348 C 37.231 38.248 37.431 38.248 37.631 38.048 Z M 11.031 23.548 L 35.731 23.548 L 35.731 34.648 L 29.231 30.648 C 29.031 30.548 28.831 30.448 28.531 30.448 L 11.031 30.448 L 11.031 23.548 Z" style="transform-origin: 23.331px 29.648px;"/>
</svg>