<?xml version="1.0" encoding="utf-8"?>
<!-- Generator: Adobe Illustrator 27.1.0, SVG Export Plug-In . SVG Version: 6.00 Build 0)  -->
<svg version="1.1" id="Ebene_1" xmlns="http://www.w3.org/2000/svg" xmlns:xlink="http://www.w3.org/1999/xlink" x="0px" y="0px"
	 viewBox="0 0 400 600" style="enable-background:new 0 0 400 600;" xml:space="preserve">
<style type="text/css">
	.st0{fill:#FFFFFF;}
	.st1{fill:#B0C9D2;stroke:#000000;stroke-width:2;stroke-miterlimit:10;}
	.st2{fill:#189CD8;stroke:#000000;stroke-width:2;stroke-miterlimit:10;}
	.st3{fill:#FFFFFF;stroke:#000000;stroke-width:2;stroke-miterlimit:10;}
	.st4{fill:none;stroke:#000000;stroke-width:4;stroke-linecap:round;}
	.st5{stroke:#000000;stroke-miterlimit:10;}
	.st6{fill:#0062A7;stroke:#000000;stroke-miterlimit:10;}
</style>
<rect x="130" y="282.5" class="st0 skin" width="147" height="178"/>
<path class="st1" d="M140.5,394v93.2H260v-99.3c-29.3,33-66.5,59.9-99.5,30.6C158.1,416.5,142.6,396.4,140.5,394z"/>
<path class="st2" d="M82.7,355.4l57.8-7.2v139.1H43.4v-87.1C43.3,377.4,60.1,358.2,82.7,355.4z M357.1,399.9
	c0.2-22.7-16.7-42-39.3-44.8l-57.8-7.5v139.7h97.1L357.1,399.9L357.1,399.9z"/>
<path class="st2" d="M252.8,476.3l104.3-11.5V524l-114.9,9.9L252.8,476.3z"/>
<path class="st3 skin" d="M278.7,219.6l-0.4,6.3c-1.8,40.5-34.2,72.9-74.6,74.6c-1.5,0.1-3.1,0.1-4.6,0.1c-41.1-0.6-75-33.1-76.9-74.7
	l-0.3-4.5c-11.5-0.9-20.6-10.6-20.6-22.3c0-10.8,7.7-19.9,17.9-21.9l-1.1-18.4h76.5h87.8l-1,16.7c10.1,2.1,17.8,11.1,17.8,21.9
	C299.2,209,290.2,218.6,278.7,219.6z M238,562.7l14.9-86.4l-57.7,2.1c-5.2,0.2-11,3.1-15,7.8l-23.8,28.2c-4.5,5.4-4.1,13.3,0.9,18.2
	c2.6,2.5,6.2,3.9,9.8,3.7c3.6-0.1,7.1-1.8,9.5-4.5l19-21.6l-7.9,43.2c-1.5,8,3.8,15.6,11.8,17.1l21.6,4
	C228.9,576,236.5,570.7,238,562.7z"/>
<path class="st4" d="M204,230.1c1.5,6.9,16.5,2.1,20.1-1.5"/>
<path class="st5" d="M171.6,210c-2.7,5.3-9.3,7.5-14.6,4.9c-5.6-2.8-7.7-9.6-4.7-15.1c2.9-5.3,9.6-7.2,14.8-4.3
	C172.2,198.3,174.2,204.8,171.6,210z M250,203c0.5,6,5.7,10.5,11.7,10.1c6-0.5,10.5-5.7,10.1-11.7c-0.5-6-5.7-10.5-11.8-10.1
	C254.1,191.7,249.6,196.9,250,203z M283.5,501.4c0-5.3-2.9-9.9-7.2-12.3v-15.6l-13,2l-0.2,13.1c-4.8,2.3-8,7.2-8,12.8
	c0,5.5,3.1,10.2,7.6,12.6l-0.3,18.7l14-1.1v-17.8C280.7,511.3,283.5,506.7,283.5,501.4z M245,252.8c3.7-2.1,11.9-10.3,4.7,4.3
	c-6.4,16-17.7,25.7-34.6,26.7c-16.4,0.9-28.2-7.7-36.2-21.9c-2.7-4.8-4.6-10.2-7-15.8c0.4-3.6,3-0.9,3-0.9
	C186.1,257.2,228.9,262.2,245,252.8z"/>
<path class="st6" d="M200.3,46.6c-57.7,0-104.6,46.8-104.6,104.6v71v130.6V394h71.8l-0.9-101l0,0c-1.5-0.7-2.9-1.5-4.4-2.3
	c-1-0.5-1.9-1.1-2.8-1.7c-0.3-0.2-0.6-0.4-0.9-0.6c-0.5-0.3-0.9-0.6-1.4-0.9c-0.4-0.2-0.7-0.5-1.1-0.7c-0.4-0.3-0.8-0.6-1.3-0.9
	s-1-0.7-1.4-1.1c-0.5-0.4-0.9-0.7-1.4-1.1s-1.1-0.8-1.6-1.3c-0.3-0.2-0.6-0.5-0.9-0.7c-0.5-0.4-1-0.9-1.5-1.3
	c-0.2-0.2-0.5-0.4-0.7-0.6c-1.5-1.4-2.9-2.8-4.3-4.3c-0.1-0.1-0.2-0.2-0.3-0.3c-0.7-0.7-1.3-1.5-2-2.2l-0.1-0.1
	c-4.3-5-7.9-10.6-10.8-16.6l0,0c-4.4-9.2-7.1-19.5-7.6-30.4l-0.3-4.5c-11.5-0.9-20.6-10.6-20.6-22.3c0-10.8,7.7-19.9,17.9-21.9
	l-1.1-18.4h76.5h87.8l-1,16.7c10.1,2.1,17.8,11.1,17.8,21.9c0,11.7-9,21.3-20.5,22.3l-0.4,6.3c-1.2,28.2-17.4,52.5-40.7,65.2v46.4
	c-0.1,7.7,5.6,15.2,13.1,16.1l9.3,0.2h44.8V151.2C304.8,93.4,258,46.6,200.3,46.6z"/>
</svg>
