<?xml version="1.0" encoding="utf-8"?>
<!-- Generator: Adobe Illustrator 27.1.0, SVG Export Plug-In . SVG Version: 6.00 Build 0)  -->
<svg version="1.1" id="Ebene_1" xmlns="http://www.w3.org/2000/svg" xmlns:xlink="http://www.w3.org/1999/xlink" x="0px" y="0px"
	 viewBox="0 0 400 600" style="enable-background:new 0 0 400 600;" xml:space="preserve">
<style type="text/css">
	.st0{fill:#1588CA;stroke:#000000;stroke-width:2;stroke-miterlimit:10;}
	.st1{fill:#FFFFFF;stroke:#000000;stroke-width:2;stroke-miterlimit:10;}
	.st2{fill:#EAEAEA;stroke:#000000;stroke-width:2;stroke-linecap:round;stroke-miterlimit:10;}
	.st3{fill:none;stroke:#1D1D1B;stroke-width:4;stroke-linecap:round;stroke-linejoin:round;}
	.st4{stroke:#000000;stroke-miterlimit:10;}
</style>
<path class="st0" d="M90.4,352.3c-31,4.1-54.2,30.6-54.2,61.9v85.9l171.1-0.1l-53.9-156.2L90.4,352.3z M364.3,414.2
	c0-31.3-23.2-57.8-54.2-61.9l-61.1-8.4l-49.8,156.2l165.2,0.1L364.3,414.2L364.3,414.2z M269.2,127.7c9.3-11.3,12.1-30.2,6.3-46.1
	c-1.3-3.5-2.9-6.6-4.9-9.4l-6.5-9.3c0,0-14.1,17.6-31.5,18.7c-13,0.8-69.4-0.2-69.4-0.2c-20.3,0-40.2,26.3-35.5,52.7
	c-7.1,7.4-12.3,17.4-11.4,28.9l1.7,23.4l28.8-49.3H242c1.1,0,2.8-0.1,4.7-0.3l38.7,49.6l1.8-23.4
	C288.1,148.1,280.9,134.2,269.2,127.7z"/>
<path class="st0" d="M259.9,467.7l104.3-11.5v59.2l-114.9,9.9L259.9,467.7z"/>
<rect x="151.6" y="308.2" class="st1" width="101.3" height="40.9"/>
<path class="st2" d="M144.2,342.7l43,119h27l43-119H144.2z"/>
<path class="st0" d="M200.7,494.3l-11.7-30l6.4-95.6h10.2l6.9,95.6L200.7,494.3z M220.1,342.7h-37.5l13.5,26h9.2L220.1,342.7z
	 M189.1,464.7l-40-122h-6L126,377.9l24.5,12.3c3.3,1.7,5,5.4,4.1,9l-6.5,26.2L189.1,464.7z M261.2,342.7h-5.7l-42.4,121l43.8-35.5
	l-6.8-27.2c-0.9-3.7,0.9-7.6,4.3-9.3l25.5-12.7L261.2,342.7z M107.2,459.3v41.3"/>
<path class="st1" d="M285.3,188.2v-3.4l-37.9-48.6c-1.9,0.2-3.6,0.3-4.7,0.3H147l-28.6,48.8v2.9c-12.6,0-22.8,10.2-22.8,22.8
	s10.2,22.8,22.8,22.8v22.8c-0.1,11.2,3.9,22,11.2,30.4l21.3,24l11.6,13.1c5.8,6.5,14,10.3,22.8,10.3h33.2c8.7,0,17-3.8,22.8-10.3
	l32.8-37.1c7.3-8.4,11.3-19.2,11.2-30.4v-22.8c12.6,0,22.8-10.2,22.8-22.8S297.9,188.2,285.3,188.2z"/>
<path class="st3" d="M189.5,233.1c1.5,6.9,16.5,2.1,20.1-1.5"/>
<path class="st1" d="M245,554.1l14.9-86.4l-57.7,2.1c-5.2,0.2-11,3.1-15,7.8l-23.8,28.2c-4.5,5.4-4.1,13.3,0.9,18.2
	c2.6,2.5,6.2,3.9,9.8,3.7c3.6-0.1,7.1-1.8,9.5-4.5l19-21.6l-7.9,43.2c-1.5,8,3.8,15.6,11.8,17.1l21.6,4
	C235.9,567.4,243.5,562.1,245,554.1z"/>
<path class="st4" d="M246.2,269.2c-7.7,18.4-21.2,29.6-41.3,30.7c-19.6,1.1-33.6-8.8-43.2-25.3c-3.2-5.6-5.4-11.7-8.4-18.2
	c0.5-4.2,3.6-1.1,3.6-1.1c13.5,13.9,64.6,19.7,83.7,8.8C245.1,261.8,254.9,252.3,246.2,269.2z M162.9,209.4c2.9-5.3,1-11.9-4.3-14.8
	c-5.3-2.9-11.9-1-14.8,4.3c-2.9,5.3-1,11.9,4.3,14.8C153.3,216.7,160,214.7,162.9,209.4z M251.6,190.3c-6,0.5-10.5,5.7-10.1,11.8
	c0.5,6,5.7,10.5,11.7,10.1c6-0.5,10.5-5.7,10.1-11.7C262.8,194.3,257.6,189.8,251.6,190.3z M290.6,492.8c0-5.3-2.9-9.9-7.2-12.3
	v-15.6l-13,2l-0.2,13.1c-4.8,2.3-8,7.2-8,12.8c0,5.5,3.1,10.2,7.6,12.6l-0.3,18.7l14-1.1v-17.8C287.7,502.7,290.6,498.1,290.6,492.8
	z"/>
</svg>
