<?xml version="1.0" encoding="utf-8"?>
<!-- Generator: Adobe Illustrator 27.1.0, SVG Export Plug-In . SVG Version: 6.00 Build 0)  -->
<svg version="1.1" id="Ebene_1" xmlns="http://www.w3.org/2000/svg" xmlns:xlink="http://www.w3.org/1999/xlink" x="0px" y="0px"
	 viewBox="0 0 400 600" style="enable-background:new 0 0 400 600;" xml:space="preserve">
<style type="text/css">
	.st0{fill:#FFFFFF;stroke:#000000;stroke-width:2;stroke-miterlimit:10;}
	.st1{fill:#1588CA;stroke:#000000;stroke-width:2;stroke-miterlimit:10;}
	.st2{fill:#EAEAEA;stroke:#000000;stroke-width:2;stroke-linecap:round;stroke-miterlimit:10;}
	.st3{fill:#1588CA;stroke:#000000;stroke-width:2.0124;stroke-miterlimit:10;}
	.st4{fill:none;stroke:#1D1D1B;stroke-width:4;stroke-linecap:round;stroke-linejoin:round;}
	.st5{stroke:#000000;stroke-miterlimit:10;}
</style>
<rect x="152.2" y="331.5" class="st0" width="100.3" height="32.7"/>
<path class="st1" d="M90.4,371.3c-31,4.1-54.2,30.6-54.2,61.9v85.9l171.1-0.1l-53.9-156.2L90.4,371.3z"/>
<path class="st1" d="M364.3,433.2c0-31.3-23.2-57.8-54.2-61.9l-61.1-8.4l-49.8,156.2l165.2,0.1L364.3,433.2L364.3,433.2z"/>
<path class="st2" d="M144.2,361.7l43,119h27l43-119H144.2z"/>
<path class="st1" d="M200.7,513.3l-11.7-30l6.4-95.6h10.2l6.9,95.6L200.7,513.3z M220.1,361.7h-37.5l13.5,26h9.2L220.1,361.7z
	 M189.1,483.7l-40-122h-6L126,396.9l24.5,12.3c3.3,1.7,5,5.4,4.1,9l-6.5,26.2L189.1,483.7z M261.2,361.7h-5.7l-42.4,121l43.8-35.5
	l-6.8-27.2c-0.9-3.7,0.9-7.6,4.3-9.3l25.5-12.7L261.2,361.7z M107.2,478.3v41.3 M301.9,478.3v41.3"/>
<path class="st3" d="M269.3,146c9.3-11.3,12.1-30.3,6.3-46.3c-1.3-3.5-2.9-6.6-4.9-9.4l-6.5-9.3c0,0-14.1,17.7-31.5,18.8
	c-13,0.8-69.3-0.2-69.3-0.2c-20.3,0-40.1,26.4-35.4,52.9c-7,7.4-12.3,17.5-11.4,29l1.7,23.5l28.8-49.5h95c1.1,0,2.8-0.1,4.7-0.3
	l38.6,49.8l1.8-23.5C288.2,166.5,281.1,152.5,269.3,146z"/>
<path class="st0" d="M285.3,207.2v-3.4l-37.9-48.6c-1.9,0.2-3.6,0.3-4.7,0.3H147l-28.6,48.8v2.9c-12.6,0-22.8,10.2-22.8,22.8
	s10.2,22.8,22.8,22.8v22.8c-0.1,11.2,3.9,22,11.2,30.4l21.3,24l11.6,13.1c5.8,6.5,14,10.3,22.8,10.3h33.2c8.7,0,17-3.8,22.8-10.3
	l32.8-37.1c7.3-8.4,11.3-19.2,11.2-30.4v-22.8c12.6,0,22.8-10.2,22.8-22.8S297.9,207.2,285.3,207.2z"/>
<path class="st4" d="M189.5,252.1c1.5,6.9,16.5,2.1,20.1-1.5"/>
<path class="st5" d="M162.9,228.4c2.9-5.3,1-11.9-4.3-14.8c-5.3-2.9-11.9-1-14.8,4.3c-2.9,5.3-1,11.9,4.3,14.8
	C153.3,235.7,160,233.7,162.9,228.4z M251.6,209.3c-6,0.5-10.5,5.7-10.1,11.8c0.5,6,5.7,10.5,11.7,10.1c6-0.5,10.5-5.7,10.1-11.7
	C262.8,213.3,257.6,208.8,251.6,209.3z M204.2,307.8c5.3-2.7,6.9-2.6,10.8,1.8c2.2,2.5,4.4,2.7,7.1,1.1c0.9-0.6,2-1,2.8-1.6
	c3.5-2.6,7-2.7,10.8-0.5c1.6,0.9,3.7,0.9,5.7,1.1c0.4,0,0.9-1,1.4-1.5c-0.5-0.3-1.1-0.7-1.7-0.9c-1.5-0.4-3.2-0.3-4.5-1.1
	c-4.5-2.6-8.7-2.4-12.8,0.5c-1,0.7-2.1,1.2-3.1,1.8c-1.5,0.9-2.6,0.6-3.9-0.7c-5.1-5.4-7.7-5.9-14.1-2.1c-4.7,2.8-8.8,3-13.2-0.3
	c-3.2-2.4-7-2.8-10.4-0.9c-4.9,2.7-9.7,4.3-15.1,1.2c-0.5-0.3-1.5,0.3-2.3,0.5c0.5,0.6,0.8,1.5,1.5,1.8c5,2.6,9.9,3.1,14.9-0.2
	c3.9-2.6,7.8-2.1,11.7,0.5c1.8,1.2,4.1,1.8,6.4,2.8C199,310.1,201.6,309.1,204.2,307.8z"/>
</svg>
