<?xml version="1.0" encoding="utf-8"?>
<!-- Generator: Adobe Illustrator 27.1.0, SVG Export Plug-In . SVG Version: 6.00 Build 0)  -->
<svg version="1.1" id="Ebene_1" xmlns="http://www.w3.org/2000/svg" xmlns:xlink="http://www.w3.org/1999/xlink" x="0px" y="0px"
	 viewBox="0 0 400 600" style="enable-background:new 0 0 400 600;" xml:space="preserve">
<style type="text/css">
	.st0{fill:#FFFFFF;}
	.st1{fill:#B0C9D2;stroke:#000000;stroke-width:2;stroke-miterlimit:10;}
	.st2{fill:#189CD8;stroke:#000000;stroke-width:2;stroke-miterlimit:10;}
	.st3{fill:#FFFFFF;stroke:#000000;stroke-width:2;stroke-miterlimit:10;}
	.st4{fill:none;stroke:#000000;stroke-width:4;stroke-linecap:round;}
	.st5{fill:#0062A7;stroke:#000000;stroke-miterlimit:10;}
	.st6{stroke:#000000;stroke-miterlimit:10;}
</style>
<rect x="146" y="307" class="st0 skin" width="147" height="178"/>
<path class="st1" d="M158.5,427v93.2H278v-99.3c-29.3,33-66.5,59.9-99.5,30.6C176.1,449.5,160.6,429.4,158.5,427z"/>
<path class="st2" d="M100.7,388.4l57.8-7.2v139.1H61.4v-87.1C61.3,410.4,78.1,391.2,100.7,388.4z M375.1,432.9
	c0.2-22.7-16.7-42-39.3-44.8l-57.8-7.5v139.7h97.1L375.1,432.9L375.1,432.9z"/>
<path class="st3 skin" d="M317.2,230.3c0-10.8-7.6-19.8-17.8-21.9l1-16.7h-87.8h-76.5l1.1,18.4c-10.2,2.1-17.9,11.1-17.9,21.9
	c0,11.8,9.1,21.4,20.6,22.3l0.3,4.5c1.8,41.6,35.8,74.1,76.9,74.7c1.5,0,3.1,0,4.6-0.1c40.5-1.8,72.9-34.2,74.6-74.6l0.4-6.3
	C308.2,251.6,317.2,242,317.2,230.3z"/>
<path class="st4" d="M206,252.1c1.5,6.9,16.5,2.1,20.1-1.5"/>
<path class="st5" d="M218.3,79.6c-57.7,0-104.6,46.8-104.6,104.6v71v130.6V427h71.8l-0.9-101l0,0c-1.5-0.7-2.9-1.5-4.4-2.3
	c-1-0.5-1.9-1.1-2.8-1.7c-0.3-0.2-0.6-0.4-0.9-0.6c-0.5-0.3-0.9-0.6-1.4-0.9c-0.4-0.2-0.7-0.5-1.1-0.7c-0.4-0.3-0.8-0.6-1.3-0.9
	s-1-0.7-1.4-1.1c-0.5-0.4-0.9-0.7-1.4-1.1s-1.1-0.8-1.6-1.3c-0.3-0.2-0.6-0.5-0.9-0.7c-0.5-0.4-1-0.9-1.5-1.3
	c-0.2-0.2-0.5-0.4-0.7-0.6c-1.5-1.4-2.9-2.8-4.3-4.3c-0.1-0.1-0.2-0.2-0.3-0.3c-0.7-0.7-1.3-1.5-2-2.2l-0.1-0.1
	c-4.3-5-7.9-10.6-10.8-16.6l0,0c-4.4-9.2-7.1-19.5-7.6-30.4l-0.3-4.5c-11.5-0.9-20.6-10.6-20.6-22.3c0-10.8,7.7-19.9,17.9-21.9
	l-1.1-18.4h76.5h87.8l-1,16.7c10.1,2.1,17.8,11.1,17.8,21.9c0,11.7-9,21.3-20.5,22.3l-0.4,6.3c-1.2,28.2-17.4,52.5-40.7,65.2v46.4
	c-0.1,7.7,5.6,15.2,13.1,16.1l9.3,0.2h44.8V184.2C322.8,126.4,276,79.6,218.3,79.6z"/>
<path class="st6" d="M179.4,228.3c-2.9,5.3-9.5,7.2-14.8,4.3s-7.2-9.5-4.3-14.8s9.6-7.2,14.8-4.3C180.3,216.4,182.3,223,179.4,228.3
	z M258,221c0.5,6,5.7,10.5,11.7,10.1c6-0.5,10.5-5.7,10.1-11.7c-0.5-6-5.7-10.5-11.8-10.1C262.1,209.7,257.6,214.9,258,221z
	 M220.6,279.1c-12.3,0-22.3,8.6-22.3,19.2s10,19.2,22.3,19.2s22.3-8.6,22.3-19.2C242.9,287.7,232.9,279.1,220.6,279.1z"/>
<path class="st3 skin" d="M131.6,520L52,521c0,0-29.9-102.2-39.1-133.3c-9.2-31.2,13.5-38.4,22-8.9c6.1,21.2,10.7,24.1,10.7,24.1
	s9.4,0,7.8-12.5c-2.1-17-5-37.5-9.2-68.7c-2.6-19.4,22-22.3,24.2-6.2c2.1,16.1,7.1,58.9,8.5,68.7c1.4,9.8,10.5,17.8,11.4-6.2
	c0.6-16.2,1.4-39.8,1.4-71.4c0-21.4,27-18.7,27,0.9c0,13.7-0.9,69.6-0.7,80.3c0.2,10.7,3.9,14.1,9.2-0.9
	c5.7-16.1,11.7-35.1,17.1-50.9c7.8-23.2,29-7.3,24.2,8.9c-4.2,14.2-14.5,45.5-22.7,69.6c-4.2,12.3-9.6,36.8,3.6,24.1
	c9.2-8.9,12.8-17.8,23.5-26.8c10.7-8.9,23.3,7.2,17.3,16.7c-9.1,14.4-25.5,36.7-36,58.3C144.2,502.9,131.6,520,131.6,520z"/>
</svg>
