<?xml version="1.0" encoding="utf-8"?>
<!-- Generator: Adobe Illustrator 27.1.0, SVG Export Plug-In . SVG Version: 6.00 Build 0)  -->
<svg version="1.1" id="Ebene_1" xmlns="http://www.w3.org/2000/svg" xmlns:xlink="http://www.w3.org/1999/xlink" x="0px" y="0px"
	 viewBox="0 0 400 600" style="enable-background:new 0 0 400 600;" xml:space="preserve">
<style type="text/css">
	.st0{fill:#1588CA;stroke:#000000;stroke-width:2;stroke-miterlimit:10;}
	.st1{fill:#FFFFFF;stroke:#000000;stroke-width:2;stroke-miterlimit:10;}
	.st2{fill:#EAEAEA;stroke:#000000;stroke-width:2;stroke-linecap:round;stroke-miterlimit:10;}
	.st3{fill:none;stroke:#1D1D1B;stroke-width:4;stroke-linecap:round;stroke-linejoin:round;}
	.st4{fill:#1588CA;stroke:#000000;stroke-width:1.9936;stroke-miterlimit:10;}
	.st5{stroke:#000000;stroke-miterlimit:10;}
</style>
<path class="st0" d="M114.4,371.3c-31,4.1-54.2,30.6-54.2,61.9v85.9l171.1-0.1l-53.9-156.2L114.4,371.3z"/>
<path class="st0" d="M388.3,433.2c0-31.3-23.2-57.8-54.2-61.9l-61.1-8.4l-49.8,156.2l165.2,0.1L388.3,433.2L388.3,433.2z"/>
<rect x="177.1" y="332.7" class="st1" width="98.8" height="32.3"/>
<path class="st2" d="M168.2,361.7l43,119h27l43-119H168.2z"/>
<path class="st0" d="M224.7,513.3l-11.7-30l6.4-95.6h10.2l6.9,95.6L224.7,513.3z M244.1,361.7h-37.5l13.5,26h9.2L244.1,361.7z
	 M213.1,483.7l-40-122h-6L150,396.9l24.5,12.3c3.3,1.7,5,5.4,4.1,9l-6.5,26.2L213.1,483.7z M285.2,361.7h-5.7l-42.4,121l43.8-35.5
	l-6.8-27.2c-0.9-3.7,0.9-7.6,4.3-9.3l25.5-12.7L285.2,361.7z M325.9,478.3v41.3"/>
<path class="st1" d="M332.1,229.9c0,12.6-10.2,22.8-22.8,22.8v22.8c0.1,11.2-3.9,22-11.2,30.4L265.3,343c-5.8,6.5-14,10.3-22.8,10.3
	h-33.2c-8.7,0-17-3.8-22.8-10.3l-11.6-13.1l-21.3-24c-7.3-8.4-11.3-19.2-11.2-30.4v-22.8c-12.6,0-22.8-10.2-22.8-22.8
	s10.2-22.8,22.8-22.8v-2.9l28.6-48.8h95.7c1.1,0,2.8-0.1,4.7-0.3l37.9,48.6v3.4C321.9,207.2,332.1,217.4,332.1,229.9z M156.4,485.8
	c10.5-21.6,26.9-43.9,36-58.3c6-9.5-6.6-25.6-17.3-16.7s-14.2,17.8-23.5,26.8c-13.2,12.7-7.8-11.8-3.6-24.1
	c8.3-24.1,18.5-55.4,22.7-69.6c4.8-16.2-16.3-32.1-24.2-8.9c-5.3,15.8-11.4,34.8-17.1,50.9c-5.3,15-9.1,11.6-9.2,0.9
	c-0.2-10.7,0.7-66.6,0.7-80.3c0-19.6-27-22.3-27-0.9c0,31.6-0.8,55.2-1.4,71.4c-0.9,24.1-10,16.1-11.4,6.2
	c-1.4-9.8-6.4-52.6-8.5-68.7s-26.8-13.1-24.2,6.2c4.3,31.2,7.1,51.8,9.2,68.7c1.6,12.5-7.8,12.5-7.8,12.5s-4.5-2.9-10.7-24.1
	c-8.5-29.4-31.3-22.3-22,8.9c9.2,31,39.1,133.3,39.1,133.3l79.6-1C136.1,519,148.6,501.9,156.4,485.8z"/>
<path class="st3" d="M222.5,258.1c1.5,6.9,16.5,2.1,20.1-1.5"/>
<path class="st4" d="M293.1,146c9.3-11.3,12.1-30.3,6.3-46.3c-1.3-3.5-2.9-6.6-4.9-9.4l-6.5-9.3c0,0-14.1,17.7-31.5,18.8
	c-13,0.8-69.4-0.2-69.4-0.2c-20.3,0-40.1,26.4-35.5,52.9c-7.1,7.4-12.3,17.5-11.4,29L142,205l28.8-49.5h95.1c1.1,0,2.8-0.1,4.7-0.3
	l38.7,49.8l1.8-23.5C312,166.5,304.8,152.5,293.1,146z"/>
<path class="st5" d="M192.9,230.4c2.9-5.3,1-11.9-4.3-14.8c-5.3-2.9-11.9-1-14.8,4.3c-2.9,5.3-1,11.9,4.3,14.8
	C183.3,237.7,190,235.7,192.9,230.4z M281.6,211.3c-6,0.5-10.5,5.7-10.1,11.8c0.5,6,5.7,10.5,11.7,10.1c6-0.5,10.5-5.7,10.1-11.7
	C292.8,215.3,287.6,210.8,281.6,211.3z M255.5,304.2c0,10.6-9.9,19.2-22.2,19.2s-22.2-8.6-22.2-19.2S221,285,233.3,285
	C245.5,285,255.5,293.6,255.5,304.2z"/>
</svg>
