<?xml version="1.0" encoding="utf-8"?>
<!-- Generator: Adobe Illustrator 21.1.0, SVG Export Plug-In . SVG Version: 6.00 Build 0)  -->
<svg version="1.1" id="Ebene_1" xmlns="http://www.w3.org/2000/svg" xmlns:xlink="http://www.w3.org/1999/xlink" x="0px" y="0px"
	 viewBox="0 0 42.5 42.5" style="enable-background:new 0 0 42.5 42.5;" xml:space="preserve">
<path d="M35.3,9.4v8.3c0,0.3-0.1,0.6-0.4,0.8c-0.2,0.2-0.5,0.4-0.8,0.4h-8.3c-0.5,0-0.9-0.2-1.1-0.7c-0.2-0.5-0.1-0.9,0.3-1.3
	l2.5-2.5c-1.8-1.7-4-2.5-6.4-2.5c-1.3,0-2.5,0.2-3.7,0.7c-1.2,0.5-2.2,1.2-3,2c-0.8,0.8-1.5,1.9-2,3c-0.5,1.2-0.7,2.4-0.7,3.7
	s0.2,2.5,0.7,3.7c0.5,1.2,1.2,2.2,2,3c0.8,0.8,1.9,1.5,3,2c1.2,0.5,2.4,0.7,3.7,0.7c1.5,0,2.8-0.3,4.1-1c1.3-0.6,2.4-1.5,3.3-2.7
	c0.1-0.1,0.2-0.2,0.4-0.2c0.2,0,0.3,0.1,0.5,0.2l2.5,2.5c0.1,0.1,0.2,0.2,0.2,0.4s0,0.3-0.1,0.4c-1.3,1.6-3,2.9-4.9,3.8
	c-1.9,0.9-3.9,1.3-6,1.3c-1.9,0-3.7-0.4-5.5-1.1s-3.3-1.8-4.5-3c-1.3-1.3-2.3-2.8-3-4.5S7,23.1,7,21.2s0.4-3.7,1.1-5.5
	s1.8-3.3,3-4.5s2.8-2.3,4.5-3S19.2,7,21.2,7c1.8,0,3.6,0.3,5.2,1c1.7,0.7,3.2,1.6,4.5,2.9l2.4-2.4c0.4-0.4,0.8-0.5,1.3-0.3
	C35.1,8.5,35.3,8.8,35.3,9.4z"/>
</svg>
