<?xml version="1.0" encoding="utf-8"?>
<!-- Generator: Adobe Illustrator 21.1.0, SVG Export Plug-In . SVG Version: 6.00 Build 0)  -->
<svg version="1.1" id="Ebene_1" xmlns="http://www.w3.org/2000/svg" xmlns:xlink="http://www.w3.org/1999/xlink" x="0px" y="0px"
	 viewBox="0 0 42.5 42.5" style="enable-background:new 0 0 42.5 42.5;" xml:space="preserve">
<path d="M30.9,9.8c-0.5-0.5-1.1-0.7-1.7-0.7h-2.4V7.3c0-0.8-0.3-1.6-0.9-2.1c-0.6-0.6-1.3-0.9-2.1-0.9h-1.2c-0.8,0-1.6,0.3-2.1,0.9
	s-0.9,1.3-0.9,2.1v1.8h-7.3V7.3c0-0.8-0.3-1.6-0.9-2.1c-0.6-0.6-1.3-0.9-2.1-0.9H7.9c-0.8,0-1.6,0.3-2.1,0.9
	C5.1,5.7,4.8,6.4,4.8,7.3v1.8H2.4c-0.7,0-1.2,0.2-1.7,0.7S0,10.9,0,11.5v24.3c0,0.7,0.2,1.2,0.7,1.7c0.5,0.5,1.1,0.7,1.7,0.7h26.7
	c0.7,0,1.2-0.2,1.7-0.7c0.5-0.5,0.7-1.1,0.7-1.7h-7.9V16.4h7.9v-4.8C31.6,10.9,31.3,10.3,30.9,9.8z M7.9,35.8H2.4v-5.5h5.5V35.8z
	 M7.9,29.1H2.4v-6.1h5.5V29.1z M7.9,21.9H2.4v-5.5h5.5V21.9z M7.5,13.2c-0.1-0.1-0.2-0.3-0.2-0.4V7.3c0-0.2,0.1-0.3,0.2-0.4
	c0.1-0.1,0.3-0.2,0.4-0.2h1.2c0.2,0,0.3,0.1,0.4,0.2C9.6,7,9.7,7.1,9.7,7.3v5.5c0,0.2-0.1,0.3-0.2,0.4c-0.1,0.1-0.3,0.2-0.4,0.2H7.9
	C7.7,13.4,7.6,13.3,7.5,13.2z M15.2,35.8H9.1v-5.5h6.1V35.8z M15.2,29.1H9.1v-6.1h6.1V29.1z M15.2,21.9H9.1v-5.5h6.1V21.9z
	 M22.5,35.8h-6.1v-5.5h6.1V35.8z M22.5,29.1h-6.1v-6.1h6.1V29.1z M22.5,21.9h-6.1v-5.5h6.1V21.9z M24.3,12.7c0,0.2-0.1,0.3-0.2,0.4
	c-0.1,0.1-0.3,0.2-0.4,0.2h-1.2c-0.2,0-0.3-0.1-0.4-0.2c-0.1-0.1-0.2-0.3-0.2-0.4V7.3c0-0.2,0.1-0.3,0.2-0.4
	c0.1-0.1,0.3-0.2,0.4-0.2h1.2c0.2,0,0.3,0.1,0.4,0.2c0.1,0.1,0.2,0.3,0.2,0.4V12.7z M42.5,31.6c0,0.9-0.3,1.7-0.8,2.2
	c-0.6,0.5-1.3,0.8-2.2,0.8H29.3c-0.9,0-1.7-0.3-2.2-0.8c-0.6-0.5-0.8-1.3-0.8-2.2c0-0.4,0-0.8,0-1.2c0-0.4,0.1-0.8,0.2-1.3
	c0.1-0.5,0.2-0.9,0.3-1.3c0.1-0.4,0.3-0.8,0.5-1.1c0.2-0.4,0.4-0.7,0.7-0.9c0.3-0.3,0.6-0.5,1-0.6c0.4-0.2,0.8-0.2,1.3-0.2
	c0.1,0,0.2,0.1,0.5,0.2s0.5,0.4,0.8,0.6s0.7,0.4,1.2,0.6c0.5,0.2,1,0.2,1.6,0.2s1-0.1,1.6-0.2c0.5-0.2,0.9-0.4,1.2-0.6
	c0.3-0.2,0.6-0.4,0.8-0.6s0.4-0.2,0.5-0.2c0.5,0,0.9,0.1,1.3,0.2c0.4,0.2,0.7,0.4,1,0.6s0.5,0.6,0.7,0.9c0.2,0.4,0.4,0.7,0.5,1.1
	c0.1,0.4,0.2,0.8,0.3,1.3c0.1,0.5,0.1,0.9,0.2,1.3C42.5,30.8,42.5,31.2,42.5,31.6z M38.3,21.2c0,1.1-0.4,2-1.1,2.8
	c-0.8,0.8-1.7,1.1-2.8,1.1s-2-0.4-2.8-1.1c-0.8-0.8-1.1-1.7-1.1-2.8c0-1.1,0.4-2,1.1-2.8c0.8-0.8,1.7-1.1,2.8-1.1s2,0.4,2.8,1.1
	C37.9,19.2,38.3,20.1,38.3,21.2z M14.1,20.7L13.8,21c0,0-0.1,0.1-0.1,0.1s-0.1,0-0.2-0.1l-1.2-1.2L11,21c0,0-0.1,0.1-0.2,0.1
	s-0.1,0-0.1-0.1l-0.3-0.3c0,0-0.1-0.1-0.1-0.1c0-0.1,0-0.1,0.1-0.2l1.2-1.2l-1.2-1.2c0,0-0.1-0.1-0.1-0.2c0-0.1,0-0.1,0.1-0.1
	l0.3-0.3c0,0,0.1-0.1,0.1-0.1s0.1,0,0.2,0.1l1.2,1.2l1.2-1.2c0,0,0.1-0.1,0.2-0.1s0.1,0,0.1,0.1l0.3,0.3c0,0,0.1,0.1,0.1,0.1
	c0,0.1,0,0.1-0.1,0.2l-1.2,1.2l1.2,1.2c0,0,0.1,0.1,0.1,0.2C14.1,20.6,14.1,20.6,14.1,20.7z M21.4,20.7L21.1,21c0,0-0.1,0.1-0.1,0.1
	s-0.1,0-0.2-0.1l-1.2-1.2L18.3,21c0,0-0.1,0.1-0.2,0.1c-0.1,0-0.1,0-0.1-0.1l-0.3-0.3c0,0-0.1-0.1-0.1-0.1s0-0.1,0.1-0.2l1.2-1.2
	L17.7,18c0,0-0.1-0.1-0.1-0.2c0-0.1,0-0.1,0.1-0.1l0.3-0.3c0,0,0.1-0.1,0.1-0.1c0.1,0,0.1,0,0.2,0.1l1.2,1.2l1.2-1.2
	c0,0,0.1-0.1,0.2-0.1s0.1,0,0.1,0.1l0.3,0.3c0,0,0.1,0.1,0.1,0.1c0,0.1,0,0.1-0.1,0.2l-1.2,1.2l1.2,1.2c0,0,0.1,0.1,0.1,0.2
	S21.4,20.7,21.4,20.7z M14,27.6l-0.3,0.3c0,0-0.1,0.1-0.1,0.1c-0.1,0-0.1,0-0.2-0.1l-1.2-1.2l-1.2,1.2c0,0-0.1,0.1-0.2,0.1
	s-0.1,0-0.1-0.1l-0.3-0.3c0,0-0.1-0.1-0.1-0.1c0-0.1,0-0.1,0.1-0.2l1.2-1.2l-1.2-1.2c0,0-0.1-0.1-0.1-0.2c0-0.1,0-0.1,0.1-0.1
	l0.3-0.3c0,0,0.1-0.1,0.1-0.1s0.1,0,0.2,0.1l1.2,1.2l1.2-1.2c0,0,0.1-0.1,0.2-0.1c0.1,0,0.1,0,0.1,0.1l0.3,0.3c0,0,0.1,0.1,0.1,0.1
	c0,0.1,0,0.1-0.1,0.2l-1.2,1.2l1.2,1.2c0,0,0.1,0.1,0.1,0.2C14.1,27.5,14,27.5,14,27.6z M21.4,34.7L21.1,35c0,0-0.1,0.1-0.1,0.1
	s-0.1,0-0.2-0.1l-1.2-1.2L18.3,35c0,0-0.1,0.1-0.2,0.1C18.1,35,18,35,18,35l-0.3-0.3c0,0-0.1-0.1-0.1-0.1s0-0.1,0.1-0.2l1.2-1.2
	l-1.2-1.2c0,0-0.1-0.1-0.1-0.2c0-0.1,0-0.1,0.1-0.1l0.3-0.3c0,0,0.1-0.1,0.1-0.1c0.1,0,0.1,0,0.2,0.1l1.2,1.2l1.2-1.2
	c0,0,0.1-0.1,0.2-0.1s0.1,0,0.1,0.1l0.3,0.3c0,0,0.1,0.1,0.1,0.1c0,0.1,0,0.1-0.1,0.2l-1.2,1.2l1.2,1.2c0,0,0.1,0.1,0.1,0.2
	S21.4,34.6,21.4,34.7z"/>
</svg>
