<?xml version="1.0" encoding="utf-8"?>
<!-- Generator: Adobe Illustrator 21.1.0, SVG Export Plug-In . SVG Version: 6.00 Build 0)  -->
<svg version="1.1" id="Ebene_1" xmlns="http://www.w3.org/2000/svg" xmlns:xlink="http://www.w3.org/1999/xlink" x="0px" y="0px"
	 viewBox="0 0 42.5 42.5" style="enable-background:new 0 0 42.5 42.5;" xml:space="preserve">
<path d="M25.5,20.2l-3.4-3.4l3.7-3.7l3.4,3.4L25.5,20.2z M10.4,35.3l13.8-13.8l-3.4-3.4L7,32L10.4,35.3z M17.9,10v1.5h-1.5v1.3h1.5
	v1.5h1.3v-1.5h1.5v-1.3h-1.5V10H17.9z M30.6,7v1.5H29v1.3h1.5v1.5h1.3V9.8h1.5V8.5h-1.5V7H30.6z M35.5,16.4H34v-1.5h-1.3v1.5h-1.5
	v1.3h1.5v1.5H34v-1.5h1.5V16.4z M35.5,16.4"/>
</svg>
