<?xml version="1.0" encoding="utf-8"?>
<!-- Generator: Adobe Illustrator 21.1.0, SVG Export Plug-In . SVG Version: 6.00 Build 0)  -->
<svg version="1.1" id="Ebene_1" xmlns="http://www.w3.org/2000/svg" xmlns:xlink="http://www.w3.org/1999/xlink" x="0px" y="0px"
	 viewBox="0 0 42.5 42.5" style="enable-background:new 0 0 42.5 42.5;" xml:space="preserve">
<path d="M38.1,15.7c0,2.7-1.4,5.5-4.2,8.3L22.4,35.1c-0.2,0.2-0.5,0.3-0.8,0.3c-0.3,0-0.6-0.1-0.8-0.3L9.2,23.9
	c-0.1-0.1-0.3-0.3-0.5-0.5c-0.2-0.2-0.6-0.6-1-1.2c-0.5-0.6-0.9-1.2-1.3-1.8c-0.4-0.6-0.7-1.4-1-2.2C5.1,17.3,5,16.5,5,15.7
	c0-2.7,0.8-4.8,2.3-6.4S11.1,7,13.8,7c0.8,0,1.5,0.1,2.3,0.4s1.5,0.6,2.2,1.1c0.7,0.4,1.3,0.9,1.8,1.3c0.5,0.4,1,0.8,1.4,1.3
	c0.4-0.4,0.9-0.9,1.4-1.3c0.5-0.4,1.1-0.8,1.8-1.3s1.4-0.8,2.2-1.1S28.5,7,29.3,7c2.8,0,4.9,0.8,6.5,2.3
	C37.3,10.8,38.1,12.9,38.1,15.7z"/>
</svg>
