<?xml version="1.0" encoding="utf-8"?>
<!-- Generator: Adobe Illustrator 27.1.0, SVG Export Plug-In . SVG Version: 6.00 Build 0)  -->
<svg version="1.1" id="Ebene_1" xmlns="http://www.w3.org/2000/svg" xmlns:xlink="http://www.w3.org/1999/xlink" x="0px" y="0px"
	 viewBox="0 0 600 600" style="enable-background:new 0 0 600 600;" xml:space="preserve">
<style type="text/css">
	.st0{fill:#FFFFFF;}
	.st1{fill:#B0C9D2;stroke:#000000;stroke-width:2;stroke-miterlimit:10;}
	.st2{fill:#189CD8;stroke:#000000;stroke-width:2;stroke-miterlimit:10;}
	.st3{fill:#FFFFFF;stroke:#000000;stroke-width:2;stroke-miterlimit:10;}
	.st4{fill:none;stroke:#000000;stroke-width:4;stroke-linecap:round;}
	.st5{stroke:#000000;stroke-miterlimit:10;}
	.st6{fill:#0062A7;stroke:#000000;stroke-width:2;stroke-miterlimit:10;}
</style>
<rect x="225.5" y="293" class="st0" width="150.4" height="166.7"/>
<path class="st1" d="M245,410.4v93.2h119.5v-99.3c-29.3,33-66.5,59.9-99.5,30.6C262.7,432.8,247.1,412.7,245,410.4z"/>
<path class="st2" d="M187.2,371.7l57.8-7.2v139.1h-97v-87.1C147.8,393.8,164.7,374.5,187.2,371.7z M461.6,416.2
	c0.2-22.7-16.7-42-39.3-44.8l-57.8-7.5v139.7h97.1L461.6,416.2L461.6,416.2z"/>
<path class="st3" d="M403.7,213.6c0-10.8-7.6-19.8-17.8-21.9l1-16.7h-87.8h-76.5l1.1,18.4c-10.2,2.1-17.9,11.1-17.9,21.9
	c0,11.8,9.1,21.4,20.6,22.3l0.3,4.5c1.8,41.6,35.8,74.1,76.9,74.7c1.5,0,3.1,0,4.6-0.1c40.5-1.8,72.9-34.2,74.6-74.6l0.4-6.3
	C394.7,234.9,403.7,225.3,403.7,213.6z"/>
<path class="st4" d="M307.5,248.4c1.5,6.9,16.5,2.1,20.1-1.5"/>
<path class="st5" d="M271.9,229.7c-2.9,5.3-9.5,7.2-14.8,4.3c-5.3-2.9-7.2-9.5-4.3-14.8s9.6-7.2,14.8-4.3
	C272.9,217.7,274.8,224.4,271.9,229.7z M350.6,222.3c0.5,6,5.7,10.5,11.7,10.1c6-0.5,10.5-5.7,10.1-11.7c-0.5-6-5.7-10.5-11.8-10.1
	C354.6,211,350.1,216.3,350.6,222.3z M326.9,285.1c0.1-2.9,1.7-5.8,2.5-8.7c0.4-1.2,0.9-2.7,0.6-3.8c-0.2-0.6-2.1-1.2-3.1-0.9
	c-5.6,1.6-11.3,3.1-16.7,5.2c-6,2.4-8.1,6.4-6.9,11.6c1.4,6.1,5.5,9.3,11.6,9.3C323.2,297.6,326.6,293.7,326.9,285.1z"/>
<path class="st6" d="M304.8,63c-57.7,0-104.6,46.8-104.6,104.6v71v130.6v41.1H272l-0.9-101l0,0c-1.5-0.7-2.9-1.5-4.4-2.3
	c-1-0.5-1.9-1.1-2.8-1.7c-0.3-0.2-0.6-0.4-0.9-0.6c-0.5-0.3-0.9-0.6-1.4-0.9c-0.4-0.2-0.7-0.5-1.1-0.7c-0.4-0.3-0.8-0.6-1.3-0.9
	s-1-0.7-1.4-1.1c-0.5-0.4-0.9-0.7-1.4-1.1s-1.1-0.8-1.6-1.3c-0.3-0.2-0.6-0.5-0.9-0.7c-0.5-0.4-1-0.9-1.5-1.3
	c-0.2-0.2-0.5-0.4-0.7-0.6c-1.5-1.4-2.9-2.8-4.3-4.3c-0.1-0.1-0.2-0.2-0.3-0.3c-0.7-0.7-1.3-1.5-2-2.2l-0.1-0.1
	c-4.3-5-7.9-10.6-10.8-16.6l0,0c-4.4-9.2-7.1-19.5-7.6-30.4l-0.3-4.5c-11.5-0.9-20.6-10.6-20.6-22.3c0-10.8,7.7-19.9,17.9-21.9
	l-1.1-18.4H299h87.8l-1,16.7c10.1,2.1,17.8,11.1,17.8,21.9c0,11.7-9,21.3-20.5,22.3l-0.4,6.3c-1.2,28.2-17.4,52.5-40.7,65.2v46.4
	c-0.1,7.7,5.6,15.2,13.1,16.1l9.3,0.2h44.8V167.5C409.4,109.8,362.5,63,304.8,63z"/>
<path class="st2" d="M491.5,401.1l-29.3,102.5h-58.6l29.3-102.5H491.5z M116.2,401.1l29.3,102.5h58.6l-29.3-102.5H116.2z"/>
<path class="st3" d="M520.8,401.1h-87.9l12.5-56.4c1.3-6,5.2-11.2,10.5-14.3l32-18.3c6.1-3.5,13.8-1.6,17.7,4.2
	c2,3,2.7,6.8,1.9,10.3c-0.8,3.6-3,6.6-6.1,8.5l-24.6,14.8h43.9c8.1,0,14.6,6.6,14.6,14.6v22C535.4,394.5,528.9,401.1,520.8,401.1z
	 M87,401.1h87.9l-12.5-56.4c-1.3-6-5.2-11.2-10.5-14.3l-32-18.3c-6.1-3.5-13.8-1.6-17.7,4.2c-2,3-2.7,6.8-1.9,10.3
	c0.8,3.6,3,6.6,6.1,8.5l24.6,14.8H87c-8.1,0-14.6,6.6-14.6,14.6v22C72.3,394.5,78.9,401.1,87,401.1z"/>
</svg>
