<?xml version="1.0" encoding="utf-8"?>
<!-- Generator: Adobe Illustrator 27.1.0, SVG Export Plug-In . SVG Version: 6.00 Build 0)  -->
<svg version="1.1" id="Ebene_1" xmlns="http://www.w3.org/2000/svg" xmlns:xlink="http://www.w3.org/1999/xlink" x="0px" y="0px"
	 viewBox="0 0 400 600" style="enable-background:new 0 0 400 600;" xml:space="preserve">
<style type="text/css">
	.st0{fill:#FFFFFF;}
	.st1{fill:#B0C9D2;stroke:#000000;stroke-width:2;stroke-miterlimit:10;}
	.st2{fill:#189CD8;stroke:#000000;stroke-width:2;stroke-miterlimit:10;}
	.st3{fill:#FFFFFF;stroke:#000000;stroke-width:2;stroke-miterlimit:10;}
	.st4{fill:none;stroke:#000000;stroke-width:4;stroke-linecap:round;}
	.st5{stroke:#000000;stroke-miterlimit:10;}
	.st6{fill:#0381C0;stroke:#000000;stroke-width:2;stroke-miterlimit:10;}
</style>
<rect x="125" y="296" class="st0 skin" width="147" height="167"/>
<path class="st1" d="M139.3,416.1v93.2h119.5V410c-29.3,33-66.5,59.9-99.5,30.6C156.9,438.5,141.4,418.4,139.3,416.1z"/>
<path class="st2" d="M81.5,377.4l57.8-7.2v139.1H42.2v-87.1C42.1,399.5,59,380.2,81.5,377.4z M355.9,421.9
	c0.2-22.7-16.7-42-39.3-44.8l-57.8-7.5v139.7h97.1L355.9,421.9L355.9,421.9z"/>
<path class="st3 skin" d="M298,219.3c0-10.8-7.6-19.8-17.8-21.9l1-16.7h-87.8h-76.5l1.1,18.4c-10.2,2.1-17.9,11.1-17.9,21.9
	c0,11.8,9.1,21.4,20.6,22.3l0.3,4.5c1.8,41.6,35.8,74.1,76.9,74.7c1.5,0,3.1,0,4.6-0.1c40.5-1.8,72.9-34.2,74.6-74.6l0.4-6.3
	C289,240.6,298,231,298,219.3z"/>
<path class="st4" d="M186.8,241.1c1.5,6.9,16.5,2.1,20.1-1.5"/>
<path class="st5" d="M160.2,217.4c-2.9,5.3-9.5,7.2-14.8,4.3s-7.2-9.5-4.3-14.8s9.6-7.2,14.8-4.3
	C161.2,205.4,163.1,212.1,160.2,217.4z M238.8,210c0.5,6,5.7,10.5,11.7,10.1c6-0.5,10.5-5.7,10.1-11.7c-0.5-6-5.7-10.5-11.8-10.1
	C242.9,198.7,238.4,204,238.8,210z M153.1,256c0,0-3.1-3.1-3.6,1.1c2.9,6.5,5.1,12.7,8.4,18.2c9.6,16.5,23.6,26.4,43.2,25.3
	c20.1-1.1,33.6-12.3,41.3-30.7c8.7-16.9-1.1-7.4-5.6-5C217.7,275.7,166.6,269.9,153.1,256z"/>
<path class="st6" d="M199.1,68.6c-57.7,0-104.6,46.8-104.6,104.6v71v130.6V416h71.8l-0.9-101l0,0c-1.5-0.7-2.9-1.5-4.4-2.3
	c-1-0.5-1.9-1.1-2.8-1.7c-0.3-0.2-0.6-0.4-0.9-0.6c-0.5-0.3-0.9-0.6-1.4-0.9c-0.4-0.2-0.7-0.5-1.1-0.7c-0.4-0.3-0.8-0.6-1.3-0.9
	s-1-0.7-1.4-1.1c-0.5-0.4-0.9-0.7-1.4-1.1s-1.1-0.8-1.6-1.3c-0.3-0.2-0.6-0.5-0.9-0.7c-0.5-0.4-1-0.9-1.5-1.3
	c-0.2-0.2-0.5-0.4-0.7-0.6c-1.5-1.4-2.9-2.8-4.3-4.3c-0.1-0.1-0.2-0.2-0.3-0.3c-0.7-0.7-1.3-1.5-2-2.2l-0.1-0.1
	c-4.3-5-7.9-10.6-10.8-16.6l0,0c-4.4-9.2-7.1-19.5-7.6-30.4l-0.3-4.5c-11.5-0.9-20.6-10.6-20.6-22.3c0-10.8,7.7-19.9,17.9-21.9
	l-1.1-18.4h76.5h87.8l-1,16.7c10.1,2.1,17.8,11.1,17.8,21.9c0,11.7-9,21.3-20.5,22.3L277,248c-1.2,28.2-17.4,52.5-40.7,65.2v46.4
	c-0.1,7.7,5.6,15.2,13.1,16.1l9.3,0.2h44.8V173.2C303.6,115.5,256.8,68.6,199.1,68.6z"/>
</svg>
