<?xml version="1.0" encoding="utf-8"?>
<!-- Generator: Adobe Illustrator 27.1.0, SVG Export Plug-In . SVG Version: 6.00 Build 0)  -->
<svg version="1.1" id="Ebene_1" xmlns="http://www.w3.org/2000/svg" xmlns:xlink="http://www.w3.org/1999/xlink" x="0px" y="0px"
	 viewBox="0 0 400 600" style="enable-background:new 0 0 400 600;" xml:space="preserve">
<style type="text/css">
	.st0{fill:#1588CA;stroke:#000000;stroke-width:2;stroke-miterlimit:10;}
	.st1{fill:#EAEAEA;stroke:#000000;stroke-width:2;stroke-linecap:round;stroke-miterlimit:10;}
	.st2{fill:#FFFFFF;stroke:#000000;stroke-width:2;stroke-miterlimit:10;}
	.st3{fill:none;stroke:#1D1D1B;stroke-width:4;stroke-linecap:round;stroke-linejoin:round;}
	.st4{fill:#1588CA;stroke:#000000;stroke-width:1.9926;stroke-miterlimit:10;}
	.st5{stroke:#000000;stroke-miterlimit:10;}
</style>
<path class="st0" d="M90.3,371.6c-31,4.1-54.2,30.6-54.2,61.9v85.9l171.1-0.1l-53.9-156.2L90.3,371.6z"/>
<path class="st0" d="M364.2,433.6c0-31.3-23.2-57.8-54.2-61.9l-61.1-8.4L199,519.4l165.2,0.1V433.6z"/>
<path class="st1" d="M144,362l43,119h27l43-119H144z"/>
<path class="st0" d="M200.6,513.7l-11.7-30l6.4-95.6h10.2l6.9,95.6L200.6,513.7z M220,362h-37.5l13.5,26h9.2L220,362z M189,484
	l-40-122h-6l-17.2,35.2l24.5,12.3c3.3,1.7,5,5.4,4.1,9l-6.5,26.2L189,484z M261.1,362h-5.7L213,483l43.8-35.5l-6.8-27.2
	c-0.9-3.7,0.9-7.6,4.3-9.3l25.5-12.7L261.1,362z M107,478.6v41.3 M301.8,478.6v41.3 M153,333v28 M252,331v30"/>
<path class="st2 skin" d="M285.2,207.5v-3.4l-37.9-48.6c-1.9,0.2-3.6,0.3-4.7,0.3h-95.7l-28.6,48.8v2.9c-12.6,0-22.8,10.2-22.8,22.8
	s10.2,22.8,22.8,22.8v22.8c-0.1,11.2,3.9,22,11.2,30.4l21.3,24l11.6,13.1c5.8,6.5,14,10.3,22.8,10.3h33.2c8.7,0,17-3.8,22.8-10.3
	l32.8-37.1c7.3-8.4,11.3-19.2,11.2-30.4V253c12.6,0,22.8-10.2,22.8-22.8S297.8,207.5,285.2,207.5z"/>
<path class="st3" d="M189.4,252.5c1.5,6.9,16.5,2.1,20.1-1.5"/>
<path class="st4" d="M269,146.4c9.3-11.3,12.1-30.3,6.3-46.3c-1.3-3.5-2.9-6.6-4.9-9.4l-6.5-9.3c0,0-14.1,17.7-31.5,18.8
	c-13,0.8-69.3-0.2-69.3-0.2c-20.2,0-40.1,26.4-35.4,52.9c-7,7.4-12.3,17.5-11.4,29l1.8,23.5l28.8-49.5h95c1.1,0,2.8-0.1,4.7-0.3
	l38.6,49.8l1.8-23.5C287.8,166.8,280.6,152.8,269,146.4z"/>
<path class="st5" d="M246.1,288.5c-7.7,18.4-21.2,29.6-41.3,30.7c-19.6,1.1-33.6-8.8-43.2-25.3c-3.2-5.6-5.4-11.7-8.4-18.2
	c0.5-4.2,3.6-1.1,3.6-1.1c13.5,13.9,64.6,19.7,83.7,8.8C245,281.1,254.7,271.7,246.1,288.5z M162.7,228.7c2.9-5.3,1-11.9-4.3-14.8
	c-5.3-2.9-11.9-1-14.8,4.3c-2.9,5.3-1,11.9,4.3,14.8C153.2,236,159.8,234,162.7,228.7z M251.4,209.6c-6,0.5-10.5,5.7-10.1,11.8
	c0.5,6,5.7,10.5,11.7,10.1c6-0.5,10.5-5.7,10.1-11.7C262.7,213.6,257.4,209.1,251.4,209.6z"/>
</svg>
