<?xml version="1.0" encoding="utf-8"?>
<!-- Generator: Adobe Illustrator 27.1.0, SVG Export Plug-In . SVG Version: 6.00 Build 0)  -->
<svg version="1.1" id="Ebene_1" xmlns="http://www.w3.org/2000/svg" xmlns:xlink="http://www.w3.org/1999/xlink" x="0px" y="0px"
	 viewBox="0 0 400 600" style="enable-background:new 0 0 400 600;" xml:space="preserve">
<style type="text/css">
	.st0{fill:#B0C9D2;stroke:#000000;stroke-width:2;stroke-miterlimit:10;}
	.st1{fill:#189CD8;stroke:#000000;stroke-width:2;stroke-miterlimit:10;}
	.st2{fill:#FFFFFF;stroke:#000000;stroke-width:2;stroke-miterlimit:10;}
	.st3{fill:none;stroke:#000000;stroke-width:4;stroke-linecap:round;}
	.st4{fill:#0381C0;stroke:#000000;stroke-width:2;stroke-miterlimit:10;}
</style>
<path class="st0" d="M140.5,427v93.2H260v-99.3c-29.3,33-66.5,59.9-99.5,30.6C158.1,449.5,142.6,429.4,140.5,427z"/>
<path class="st1" d="M82.7,388.4l57.8-7.2v139.1H43.4v-87.1C43.3,410.4,60.1,391.2,82.7,388.4z M357.1,432.9
	c0.2-22.7-16.7-42-39.3-44.8l-57.8-7.5v139.7h97.1L357.1,432.9L357.1,432.9z"/>
<path class="st2" d="M299.2,230.3c0-10.8-7.6-19.8-17.8-21.9l1-16.7h-87.8h-76.5l1.1,18.4c-10.2,2.1-17.9,11.1-17.9,21.9
	c0,11.8,9.1,21.4,20.6,22.3l0.3,4.5c1.8,41.6,35.8,74.1,76.9,74.7c1.5,0,3.1,0,4.6-0.1c40.5-1.8,72.9-34.2,74.6-74.6l0.4-6.3
	C290.2,251.6,299.2,242,299.2,230.3z"/>
<path class="st3" d="M188,252.1c1.5,6.9,16.5,2.1,20.1-1.5"/>
<path class="st4" d="M304.8,184.2v202.7H260l-9.3-0.2c-7.5-1-13.1-8.5-13.1-16.1v-46.4c23.4-12.7,39.5-37,40.7-65.2l0.4-6.3
	c11.5-1,20.5-10.6,20.5-22.3c0-10.8-7.6-19.8-17.8-21.9l1-16.7h-87.8h-76.5l1.1,18.4c-10.2,2.1-17.9,11.1-17.9,21.9
	c0,11.8,9.1,21.4,20.6,22.3l0.3,4.5c0.5,10.9,3.2,21.2,7.6,30.4l0,0c2.9,6,6.5,11.6,10.8,16.6l0.1,0.1c0.6,0.8,1.3,1.5,2,2.2
	c0.1,0.1,0.2,0.2,0.3,0.3c1.4,1.5,2.8,2.9,4.3,4.3c0.2,0.2,0.5,0.4,0.7,0.6c0.5,0.5,1,0.9,1.5,1.3c0.3,0.2,0.6,0.5,0.9,0.7
	c0.5,0.4,1,0.9,1.6,1.3c0.5,0.4,0.9,0.7,1.4,1.1s1,0.7,1.4,1.1c0.4,0.3,0.8,0.6,1.3,0.9c0.4,0.2,0.7,0.5,1.1,0.7
	c0.5,0.3,0.9,0.6,1.4,0.9c0.3,0.2,0.6,0.4,0.9,0.6c0.9,0.6,1.9,1.1,2.8,1.7c1.4,0.8,2.9,1.6,4.4,2.3l0,0l0.9,101H95.7v-41.1V255.2
	v-71c0-57.7,46.8-104.6,104.6-104.6S304.8,126.4,304.8,184.2z"/>
<path d="M219,286.3c0,10.6-10,19.2-22.3,19.2s-22.3-8.6-22.3-19.2s10-19.2,22.3-19.2S219,275.7,219,286.3z M157,213.5
	c-5.3-2.9-11.9-1-14.8,4.3c-2.9,5.3-1,11.9,4.3,14.8c5.3,2.9,11.9,1,14.8-4.3C164.3,223,162.3,216.4,157,213.5z M250.1,209.2
	c6-0.5,11.3,4,11.8,10.1c0.5,6-4,11.3-10.1,11.7c-6,0.5-11.3-4-11.7-10.1C239.6,214.9,244.1,209.7,250.1,209.2z"/>
<path class="st1" d="M143.3,416.6l-31.2,103.7h62.3l31.2-103.7L143.3,416.6L143.3,416.6z"/>
<path class="st2" d="M235.5,340.7c-0.7-1.4-2.2-2.4-4.4-3c-3.8-1.1-8.9,3.7-12.5,8.6l-7.6,12.9c-1.5,3-3.4,6.6-5.4,5.6l0.4-5.5
	v-56.1c0-1.7-0.7-3.3-2.1-4.5c-1.3-1.2-3-1.8-4.9-1.8l0,0c-3.7,0-6.8,2.7-6.9,6.1v56.7c0,1.1-1,2-2.3,2s-2.3-0.9-2.3-2v-65.6
	c0-3.4-3.1-6.2-6.9-6.2c-3.8,0-6.9,2.8-6.9,6.2v65.6c0,1.1-1,2-2.3,2s-2.3-0.9-2.3-2v-59.1c0-3.4-3.1-6.2-6.9-6.2
	c-3.8,0-6.8,2.7-6.8,6.2V325c0,0.3,0,0.5,0,0.8v33.8c0,1.1-1,2-2.3,2l0,0c-1.3,0-2.3-0.9-2.3-2v-34.4c-0.3-3.1-3.2-5.6-6.8-5.6
	c-3.7,0-6.6,2.7-6.6,6.2v65c0,3.5,0.6,7.1,1.7,10.8c2.2,7.1,5.1,16,5.1,16h61c2.3-2.3,4.8-4.7,7.6-7.3c5.9-5.7,7.1-18.7,8-28.1
	c0.4-4.1,0.7-7.3,1.3-9.4c0-0.1,0.1-0.2,0.1-0.3l12.8-26.3C236.2,344.3,236.3,342.2,235.5,340.7z"/>
</svg>
