<?xml version="1.0" encoding="utf-8"?>
<!-- Generator: Adobe Illustrator 27.1.0, SVG Export Plug-In . SVG Version: 6.00 Build 0)  -->
<svg version="1.1" id="Ebene_1" xmlns="http://www.w3.org/2000/svg" xmlns:xlink="http://www.w3.org/1999/xlink" x="0px" y="0px"
	 viewBox="0 0 400 600" style="enable-background:new 0 0 400 600;" xml:space="preserve">
<style type="text/css">
	.st0{fill:#FFFFFF;stroke:#000000;stroke-width:2;stroke-miterlimit:10;}
	.st1{fill:#1588CA;stroke:#000000;stroke-width:2;stroke-miterlimit:10;}
	.st2{fill:#EAEAEA;stroke:#000000;stroke-width:2;stroke-linecap:round;stroke-miterlimit:10;}
	.st3{fill:none;stroke:#1D1D1B;stroke-width:4;stroke-linecap:round;stroke-linejoin:round;}
	.st4{stroke:#000000;stroke-miterlimit:10;}
	.st5{fill:#1588CA;stroke:#000000;stroke-width:1.9932;stroke-miterlimit:10;}
	.st6{fill:#1588CA;stroke:#000000;stroke-width:2.0669;stroke-miterlimit:10;}
	.st7{fill:#FFFFFF;stroke:#000000;stroke-width:2.1081;stroke-miterlimit:10;}
</style>
<g id="Ebene_1_00000147931102393431600570000006621916339682761914_">
	<rect x="153.8" y="327.2" class="st0 skin" width="99" height="44.6"/>
	<path class="st1" d="M91.1,371.9c-31,4.1-54.2,30.6-54.2,61.9v85.9l171.1-0.1l-53.9-156.2L91.1,371.9z"/>
	<path class="st1" d="M365,433.9c0-31.3-23.2-57.8-54.2-61.9l-61.1-8.4l-49.8,156.2l165.2,0.1L365,433.9L365,433.9z"/>
	<path class="st2" d="M144.8,362.3l43,119h27l43-119H144.8z"/>
	<path class="st1" d="M201.4,514l-11.7-30l6.4-95.6h10.2l6.9,95.6L201.4,514z M220.8,362.3h-37.5l13.5,26h9.2L220.8,362.3z
		 M189.8,484.3l-40-122h-6l-17.2,35.2l24.5,12.3c3.3,1.7,5,5.4,4.1,9l-6.5,26.2L189.8,484.3z M261.9,362.3h-5.7l-42.4,121l43.8-35.5
		l-6.8-27.2c-0.9-3.7,0.9-7.6,4.3-9.3l25.5-12.7L261.9,362.3z M107.8,478.9v41.3 M302.6,478.9v41.3"/>
	<path class="st0 skin" d="M286,207.8v-3.4l-38-48.5c-1.9,0.2-3.6,0.3-4.7,0.3h-95.7L119,205v2.9c-12.6,0-22.8,10.2-22.8,22.8
		s10.2,22.8,22.8,22.8v22.8c-0.1,11.2,3.9,22,11.2,30.4l21.3,24l11.6,13.1c5.8,6.5,14,10.3,22.8,10.3h33.2c8.7,0,17-3.8,22.8-10.3
		l32.8-37.1c7.3-8.4,11.3-19.2,11.2-30.4v-22.8c12.6,0,22.8-10.2,22.8-22.8S298.6,207.8,286,207.8z"/>
	<path class="st3" d="M193.1,255.8c1.5,6.9,16.5,2.1,20.1-1.5"/>
	<path class="st4" d="M163.5,229.1c2.9-5.3,1-11.9-4.3-14.8c-5.3-2.9-11.9-1-14.8,4.3c-2.9,5.3-1,11.9,4.3,14.8
		C154,236.3,160.6,234.4,163.5,229.1z M252.2,209.9c-6,0.5-10.5,5.7-10.1,11.8c0.5,6,5.7,10.5,11.7,10.1c6-0.5,10.5-5.7,10.1-11.7
		C263.5,214,258.2,209.5,252.2,209.9z M225,303.5c0,10.6-10,19.2-22.3,19.2s-22.3-8.6-22.3-19.2s10-19.2,22.3-19.2
		S225,292.9,225,303.5z"/>
	<path class="st5" d="M270,146.7c9.3-11.3,12.1-30.3,6.3-46.3c-1.3-3.5-2.9-6.6-4.9-9.4l-6.5-9.3c0,0-14.1,17.7-31.5,18.8
		c-13,0.8-69.3-0.2-69.3-0.2c-20.3,0-40.1,26.4-35.5,52.9c-7.1,7.4-12.3,17.5-11.4,29l1.8,23.5l28.8-49.5h95.1
		c1.1,0,2.8-0.1,4.7-0.3l38.6,49.8l1.8-23.5C288.9,167.1,281.6,153.2,270,146.7z"/>
	<path class="st6" d="M147,433.8l-29,85.9h66.6l29-85.9L147,433.8L147,433.8z"/>
	<path class="st7 skin" d="M245.5,354.8c-0.8-1.4-2.3-2.5-4.7-3.1c-4-1.1-9.5,3.9-13.4,8.9l-8.1,13.4c-1.6,3.1-3.6,6.9-5.8,5.8l0.4-5.7
		v-58.3c0-1.8-0.8-3.4-2.2-4.7c-1.4-1.2-3.2-1.9-5.2-1.9l0,0c-4,0-7.2,2.8-7.4,6.4v59c0,1.2-1.1,2.1-2.4,2.1c-1.3,0-2.4-0.9-2.4-2.1
		v-68.2c0-3.5-3.3-6.4-7.4-6.4c-4.1,0-7.4,2.9-7.4,6.4v68.2c0,1.2-1.1,2.1-2.4,2.1c-1.3,0-2.4-0.9-2.4-2.1v-61.5
		c0-3.5-3.3-6.4-7.4-6.4c-4.1,0-7.2,2.8-7.2,6.5v25.4c0,0.3,0,0.5,0,0.8v35.2c0,1.2-1.1,2.1-2.4,2.1l0,0c-1.3,0-2.4-0.9-2.4-2.1
		v-35.8c-0.4-3.2-3.5-5.8-7.2-5.8c-4,0-7.1,2.8-7.1,6.5v67.6c0,3.6,0.6,7.4,1.9,11.2c2.3,7.4,5.5,16.6,5.5,16.6h65.2
		c2.4-2.4,5.2-4.9,8.1-7.6c6.3-6,7.6-19.4,8.6-29.2c0.4-4.2,0.7-7.6,1.4-9.8c0-0.1,0.1-0.2,0.1-0.3l13.7-27.3
		C246.2,358.6,246.3,356.4,245.5,354.8z"/>
</g>
</svg>
