<?xml version="1.0" encoding="utf-8"?>
<!-- Generator: Adobe Illustrator 28.2.0, SVG Export Plug-In . SVG Version: 6.00 Build 0)  -->
<svg version="1.1" id="Ebene_1" xmlns="http://www.w3.org/2000/svg" xmlns:xlink="http://www.w3.org/1999/xlink" x="0px" y="0px"
	 viewBox="0 0 565 216.7" style="enable-background:new 0 0 565 216.7;" xml:space="preserve">
<style type="text/css">
	.st0{fill:#0082CA;}
</style>
<path class="st0" d="M445.7,145.1c1.6,18.5,12.2,31.7,31.7,31.7c10,0,21-3.8,26.1-11.6h58.1c-12.6,35.2-46.8,51.5-83.8,51.5
	c-52.1,0-91.4-30.8-91.4-85.1c0-47.4,34.5-86,86-86c64.7,0,92.6,36.1,92.6,99.5H445.7z M505.3,112.7c0-15.1-11.3-27.3-27.3-27.3
	c-18.5,0-29.2,9.7-32,27.3H505.3z M209.8,49.6h60v20.7h0.6c11.6-16.3,28.3-24.8,53.1-24.8c29.2,0,55.9,17.9,55.9,55.3v111.8h-62.2
	v-85.4c0-18.8-2.2-32-20.4-32c-10.7,0-24.8,5.3-24.8,31.4v86h-62.2V49.6z M136.4,104.2h62.2v108.4h-62.2V104.2z M89.8,49.6V0H27.6
	v49.6H0v38.3h27.6v77.9c0,44.6,29.2,48.7,55.6,48.7c13.2,0,27.3-1.9,39.9-1.9v-47.1c-4.7,0.6-9.4,0.9-14.1,0.9
	c-15.7,0-19.2-6.6-19.2-21.7V87.9l108.7,0V49.6L89.8,49.6z"/>
</svg>
